<?xml version="1.0" standalone="no"?>
<!DOCTYPE svg PUBLIC "-//W3C//DTD SVG 1.1//EN" "http://www.w3.org/Graphics/SVG/1.1/DTD/svg11.dtd">
<svg xmlns="http://www.w3.org/2000/svg">
<metadata>Copyright (C) 2021 by original authors @ fontello.com</metadata>
<defs>
<font id="arkanfont" horiz-adv-x="1000" >
<font-face font-family="arkanfont" font-weight="400" font-stretch="normal" units-per-em="1000" ascent="850" descent="-150" />
<missing-glyph horiz-adv-x="1000" />
<glyph glyph-name="menu" unicode="&#xe800;" d="M834 90q42 0 73-30t31-75q0-42-30-73t-74-31l-730 0q-44 0-74 31t-30 73q0 44 31 75t73 30l730 0z m0 364q44 0 74-31t30-73-30-73-74-30l-730 0q-44 0-74 30t-30 73 30 73 74 31l730 0z m0 365q44 0 74-31t30-73q0-43-31-74t-73-31l-730 0q-43 0-73 31t-31 74q0 43 30 73t74 31l730 0z" horiz-adv-x="938" />

<glyph glyph-name="menu-outline" unicode="&#xe801;" d="M885 38l-729 0q-21 0-37-16t-15-37 15-36 37-15l729 0q21 0 37 15t16 36-16 37-37 16z m0 104q65 0 111-46t45-111-45-110-111-46l-729 0q-65 0-110 46t-46 110 46 111 110 46l729 0z m0 261l-729 0q-21 0-37-16t-15-37 15-37 37-15l729 0q21 0 37 15t16 37-16 37-37 16z m0 104q65 0 111-46t45-111-45-110-111-46l-729 0q-65 0-110 46t-46 110 46 111 110 46l729 0z m0 260l-729 0q-21 0-37-15t-15-37 15-37 37-15l729 0q21 0 37 15t16 37-16 37-37 15z m0 105q65 0 111-46t45-111-45-110-111-46l-729 0q-65 0-110 46t-46 110 46 111 110 46l729 0z" horiz-adv-x="1041" />

<glyph glyph-name="menu-1" unicode="&#xe802;" d="M650 400q22 0 36-15t14-35-15-35-35-15l-600 0q-20 0-35 15t-15 35 14 35 36 15l600 0z m-600 100q-20 0-35 15t-15 35 14 35 36 15l600 0q22 0 36-15t14-35-15-35-35-15l-600 0z m600-300q22 0 36-15t14-35-15-35-35-15l-600 0q-20 0-35 15t-15 35 14 35 36 15l600 0z" horiz-adv-x="700" />

<glyph glyph-name="th-list" unicode="&#xe803;" d="M1000 850v-160h-1000v160h1000z m0-280v-160h-1000v160h1000z m0-280v-160h-1000v160h1000z m0-280v-160h-1000v160h1000z" horiz-adv-x="1000" />

<glyph glyph-name="ok" unicode="&#xe804;" d="M1179 778q-250-222-600-750l-115-179q-144 180-464 500l107 107 286-250q150 150 279 272t206 187 131 111 77 59l21 14q4 0 11-2t26-19 35-50z" horiz-adv-x="1179" />

<glyph glyph-name="star" unicode="&#xe805;" d="M741-118q-19 0-39 12l-213 121-215-121q-44-24-84 3-41 29-31 79l50 243q-10 9-39 35t-45 40l-99 90q-37 35-21 82t66 54l244 26 102 225q22 47 72 47 47 0 71-47l101-225 245-27q48-4 65-52t-21-83l-183-166 50-242q7-35-16-64t-60-30z m-425 343q-1-4-7-36t-17-84-20-92l190 107q27 14 52 0l190-107-44 213q-6 29 16 49l161 148-217 23q-30 4-41 30l-90 199-90-199q-13-26-43-30l-216-23 161-148q21-19 15-50z" horiz-adv-x="976" />

<glyph glyph-name="star-1" unicode="&#xe806;" d="M4 457q14 41 57 47l262 39 113 235q19 41 64 41t65-41l113-235 262-39q43-6 56-47t-15-70l-192-191 43-264q8-43-29-68-18-14-41-14-18 0-35 8l-227 123-226-123q-18-8-35-8-24 0-41 14-38 25-30 68l43 264-189 191q-32 29-18 70z m69-21l191-191q25-26 19-61l-44-264 226 123q16 8 35 8t35-8l227-123-45 264q-6 35 20 61l191 191-260 37q-39 6-54 41l-114 234-113-234q-16-35-55-39z" horiz-adv-x="1001" />

<glyph glyph-name="check" unicode="&#xe807;" d="M249 0q-34 0-56 28l-180 236q-16 24-12 52t26 46 51 14 47-28l118-154 296 474q16 24 43 30t53-8q24-16 30-43t-8-53l-350-560q-20-32-56-32z" horiz-adv-x="667" />

<glyph glyph-name="cancel" unicode="&#xe808;" d="M452 194q18-18 18-43t-18-43q-18-16-43-16t-43 16l-132 152-132-152q-18-16-43-16t-43 16q-16 18-16 43t16 43l138 156-138 158q-16 18-16 43t16 43q18 16 43 16t43-16l132-152 132 152q18 16 43 16t43-16q18-18 18-43t-18-43l-138-158z" horiz-adv-x="470" />

<glyph glyph-name="cancel-circled" unicode="&#xe809;" d="M420 770q174 0 297-123t123-297-123-297-297-123-297 123-123 297 123 297 297 123z m86-420l154 154-86 86-154-152-152 152-88-86 154-154-154-152 88-86 152 152 154-152 86 86z" horiz-adv-x="840" />

<glyph glyph-name="cancel-squared" unicode="&#xe80a;" d="M700 750q42 0 71-29t29-71l0-600q0-40-29-70t-71-30l-600 0q-40 0-70 30t-30 70l0 600q0 42 30 71t70 29l600 0z m-146-638l86 86-154 152 154 154-86 86-154-152-152 152-88-86 154-154-154-152 88-86 152 152z" horiz-adv-x="800" />

<glyph glyph-name="heart" unicode="&#xe80b;" d="M790 644q70-64 70-156t-70-158l-360-330-360 330q-70 66-70 158t70 156q62 58 151 58t153-58l56-52 58 52q62 58 150 58t152-58z" horiz-adv-x="860" />

<glyph glyph-name="heart-empty" unicode="&#xe80c;" d="M790 642q70-64 70-156t-70-156l-360-330-360 330q-70 64-70 156t70 156q64 58 152 58t150-58l58-52 56 52q64 58 152 58t152-58z m-54-260q42 40 42 104 0 66-38 100-38 38-102 38-52 0-104-48l-104-92-106 92q-48 48-102 48-64 0-104-38-38-36-38-100 0-66 44-104l306-286z" horiz-adv-x="860" />

<glyph glyph-name="clock" unicode="&#xe80d;" d="M460 810q190 0 325-135t135-325-135-325-325-135-325 135-135 325 135 325 325 135z m0-820q150 0 255 106t105 254q0 150-105 255t-255 105q-148 0-254-105t-106-255q0-148 106-254t254-106z m36 620l0-244 150-150-50-50-170 170 0 274 70 0z" horiz-adv-x="920" />

<glyph glyph-name="ok-1" unicode="&#xe80e;" d="M625 676q38-20 49-63t-9-80l-260-469q-30-53-91-53-43 0-74 31l-209 207q-31 32-31 74t31 74 74 31 74-31l111-110 193 347q20 38 62 50t80-8z" horiz-adv-x="679" />

<glyph glyph-name="cancel-1" unicode="&#xe80f;" d="M596 632q32-31 32-74t-32-74l-135-135 135-135q32-31 32-73t-32-74q-30-30-73-30t-74 30l-135 135-135-135q-30-30-74-30t-74 30q-31 31-31 74t31 73l135 135-135 135q-31 32-31 74t31 74q30 31 74 31t74-31l135-135 135 135q30 31 74 31t73-31z" horiz-adv-x="628" />

<glyph glyph-name="cancel-outline" unicode="&#xe810;" d="M729 143q0-64-46-110t-110-47-110 47l-98 97-99-97q-43-44-110-44t-110 44q-46 46-46 110 0 65 46 111l98 98-98 97q-46 46-46 111 0 64 46 110 44 44 110 44t110-44l99-97 98 97q43 44 110 44t111-44q45-45 45-110 0-66-45-111l-99-97 99-98q45-45 45-111z m-364 135l171-171q15-15 37-15t37 15 15 36q0 22-15 37l-171 172 171 171q15 15 15 37 0 22-15 37t-37 15-37-15l-171-172-172 172q-15 15-37 15t-36-15q-16-17-16-37 0-21 16-37l171-171-171-172q-16-16-16-37 0-20 16-36 15-15 36-15t37 15z" horiz-adv-x="729" />

<glyph glyph-name="cancel-circled-1" unicode="&#xe811;" d="M416 767q173 0 295-122t123-295-123-294-295-122-294 122-122 294 122 295 294 122z m194-537l-120 120 120 120q15 15 15 37t-15 36-37 15-37-15l-120-119-118 119q-15 15-37 15t-37-15-15-36 15-37l119-120-119-120q-15-15-15-36t15-36q16-16 36-16 21 0 38 16l118 119 120-119q17-16 37-16 21 0 37 16 15 15 15 36t-15 36z" horiz-adv-x="834" />

<glyph glyph-name="plus-outline" unicode="&#xe812;" d="M469-119q-65 0-111 46t-45 111l2 159-157-3q-65 0-112 46t-46 110 46 111 110 46l159 2-2 153q0 65 45 111t111 46 110-46 46-110l3-154 155-2q63 0 109-46t46-111-46-110-111-46l-153 3-3-160q0-64-46-110t-110-46z m-53 417l0-261q0-22 16-37t37-15 37 16 15 37l0 260 262 0q21 0 36 15t15 37-16 37-37 16l-260 0 0 260q0 22-15 37t-37 15-37-15-16-37l0-260-260 0q-22 0-37-16t-15-37 15-37 37-15l260 0z" horiz-adv-x="938" />

<glyph glyph-name="plus" unicode="&#xe813;" d="M729 454q44 0 74-31t31-73-31-73-74-30l-208 3 0-212q0-43-30-73t-75-31-73 31-30 73l3 212-212-3q-44 0-74 30t-30 73 30 73 74 31l212 0-3 209q0 42 30 73t73 31 75-31 30-73l0-209 208 0z" horiz-adv-x="834" />

<glyph glyph-name="minus-outline" unicode="&#xe814;" d="M781 194l-625 0q-65 0-110 46t-46 110 46 111 110 46l625 0q65 0 111-46t46-111-46-110-111-46z m-625 209q-21 0-37-16t-15-37 15-36 37-15l625 0q22 0 37 15t16 36-16 37-37 16l-625 0z" horiz-adv-x="938" />

<glyph glyph-name="minus" unicode="&#xe815;" d="M729 455q44 0 74-32t31-73-31-74-74-30l-625 0q-44 0-74 30t-30 74q0 43 31 74t73 31l625 0z" horiz-adv-x="834" />

<glyph glyph-name="left-open-outline" unicode="&#xe816;" d="M638 91q0-64-47-111t-110-46q-65 0-110 45l-371 372 371 371q44 44 111 44t111-44q45-45 45-111 0-65-45-110l-150-150 150-150q45-45 45-110z m-490 260l297-298q15-15 37-15t37 15 15 38q0 21-15 36l-224 224 224 223q15 15 15 37 0 22-15 37t-37 15-37-15z" horiz-adv-x="638" />

<glyph glyph-name="left-open" unicode="&#xe817;" d="M481 684q32-31 32-74t-32-74l-186-186 186-186q32-31 32-74t-32-74-73-31-74 31l-334 334 334 334q30 31 74 31t73-31z" horiz-adv-x="513" />

<glyph glyph-name="right-open-outline" unicode="&#xe818;" d="M156-66q-63 0-110 46t-46 111 46 110l150 150-150 150q-46 46-46 110 0 65 46 111 44 44 110 44t110-44l372-371-372-372q-45-45-110-45z m0 729q-21 0-37-16t-15-36q0-20 16-37l223-223-223-224q-16-16-16-36 0-22 16-38 15-15 36-15t37 15l297 298-297 297q-15 15-37 15z" horiz-adv-x="638" />

<glyph glyph-name="right-open" unicode="&#xe819;" d="M31 684q30 31 74 31t74-31l335-334-335-334q-31-31-74-31t-74 31-31 74 31 74l188 186-188 186q-31 32-31 74t31 74z" horiz-adv-x="514" />

<glyph glyph-name="down" unicode="&#xe81a;" d="M700 391q31-31 31-73t-31-74l-334-334-335 334q-31 31-31 74t31 73 74 32 74-32l82-82 0 377q0 43 31 73t74 31q43 0 73-31t31-73l0-377 83 82q31 32 73 32t74-32z" horiz-adv-x="731" />

<glyph glyph-name="left" unicode="&#xe81b;" d="M776 454q43 0 73-31t31-74q0-43-30-73t-74-31l-377 0 82-82q32-30 32-74t-32-74q-30-30-73-30t-74 30l-334 334 334 335q31 31 74 31t73-31q32-30 32-73t-32-75l-82-82 377 0z" horiz-adv-x="880" />

<glyph glyph-name="right" unicode="&#xe81c;" d="M399 684q31 31 74 31t73-31l334-335-334-334q-30-30-73-30t-74 30q-31 31-31 74t31 74l82 82-377 0q-44 0-74 31t-30 73q0 44 31 74t73 31l377 0-82 82q-31 32-31 75t31 73z" horiz-adv-x="880" />

<glyph glyph-name="up" unicode="&#xe81d;" d="M366 790l334-334q31-31 31-73t-31-74-74-31-73 31l-83 82 0-377q0-44-31-74t-73-30q-43 0-74 31t-31 73l0 377-82-82q-31-31-74-31t-74 31-31 74 31 73z" horiz-adv-x="731" />

<glyph glyph-name="down-outline" unicode="&#xe81e;" d="M416-153l-370 371q-46 46-46 110t46 110q43 43 106 44t108-38l0 253q0 65 46 110t110 46 111-46 46-110l0-253q45 40 108 38t107-44q46-46 46-110t-46-110z m-260 534q-22 0-37-15t-15-37 15-37l297-298 298 298q15 15 15 37t-15 37-37 15-37-15l-171-173 0 504q0 21-16 36t-37 15-36-15-15-36l0-504-172 173q-15 15-37 15z" horiz-adv-x="834" />

<glyph glyph-name="left-outline" unicode="&#xe81f;" d="M638 91q0-64-47-111t-110-46-110 46l-371 371 371 371q44 44 110 44t110-44q47-46 47-110 0-61-40-105l252 0q65 0 111-46t45-110-45-111-111-46l-252 0q40-43 40-103z m-490 260l297-297q15-15 37-15t37 15 15 37-15 36l-173 172 504 0q21 0 36 15t15 37-15 36-36 16l-504 0 173 171q15 15 15 38 0 21-15 36t-37 15-37-15z" horiz-adv-x="1006" />

<glyph glyph-name="right-outline" unicode="&#xe820;" d="M525-66q-64 0-110 46t-46 111q0 11 1 20t5 18 7 17 11 21 15 27l-252 0q-65 0-110 46t-46 111 46 110 110 46l252 0q-5 11-14 27t-12 22-7 16-5 20-1 20q0 65 45 110 44 44 110 44t111-44l371-371-371-371q-46-46-110-46z m-369 469q-21 0-37-16t-15-36 15-37 37-15l503 0-171-172q-15-15-15-36t15-37 36-15 37 15l298 297-298 297q-15 15-37 15t-36-15-15-36q0-23 15-38l171-171-503 0z" horiz-adv-x="1006" />

<glyph glyph-name="up-outline" unicode="&#xe821;" d="M416-151q-65 0-110 46t-46 110l0 248q-45-40-108-38t-106 44q-46 46-46 111t46 110l370 372 372-372q46-46 46-110t-46-111q-43-42-107-44t-108 38l0-248q0-65-46-110t-111-46z m-51 655l0-499q0-21 15-37t36-15 37 15 16 37l0 499 171-171q15-15 37-15t37 15 15 37-15 37l-298 297-297-297q-15-15-15-37t15-37 37-15 37 15z" horiz-adv-x="834" />

<glyph glyph-name="down-small" unicode="&#xe822;" d="M505 346q15-15 15-37t-15-37l-245-245-245 245q-15 15-15 37t15 37 37 15 37-15l120-119 0 395q0 21 15 36t36 15 37-15 16-36l0-395 120 119q15 15 36 15t36-15z" horiz-adv-x="520" />

<glyph glyph-name="left-small" unicode="&#xe823;" d="M595 403q21 0 36-16t15-37-15-37-36-15l-395 0 119-119q15-15 15-37t-15-37-36-15q-23 0-38 15l-245 245 245 245q15 15 37 15t37-15 15-37-15-37l-119-118 395 0z" horiz-adv-x="646" />

<glyph glyph-name="right-small" unicode="&#xe824;" d="M328 595q15 15 36 15t37-15l245-245-245-245q-15-15-36-15-22 0-37 15t-15 37 15 37l120 119-395 0q-22 0-37 15t-16 37 16 37 37 16l395 0-120 118q-15 15-15 37t15 37z" horiz-adv-x="646" />

<glyph glyph-name="up-small" unicode="&#xe825;" d="M260 673l245-245q15-15 15-37t-15-37-36-15-36 15l-120 120 0-395q0-21-16-37t-37-15-36 15-15 37l0 395-120-120q-15-15-37-15t-37 15-15 37 15 37z" horiz-adv-x="520" />

<glyph glyph-name="cw-outline" unicode="&#xe826;" d="M696 767q54 0 95-41t43-119l0-257q0-180-123-299t-295-118-294 122-122 295 122 295 294 122q93 0 179-40 49 40 101 40z m-471-426q0 74 54 127t127 54q58 0 100-27l-76-74q-31-31-21-51t54-20l266 0 0 257q0 55-33 55-20 0-43-24l-60-60q-82 64-187 64-125 0-213-89-88-87-88-213t88-214q88-89 213-89t214 89q25 25 41 50 19 29 2 61t-53 33q-32 0-50-28-24-36-66-60t-88-24q-73 0-127 55t-54 128z m53 0q0-54 37-91t91-38q53 0 92 39 10 10 18 22t12 19l2 6-67 0q-82 0-103 49-20 48 34 101l12 7q-60 0-91-32-37-36-37-82z" horiz-adv-x="834" />

<glyph glyph-name="heart-empty-1" unicode="&#xe827;" d="M1 521q7 115 79 191l2 0 2 2q88 76 199 76t191-70q32 28 67 45l2 2 2 0q56 23 117 23 88 2 161-43t110-124l0-2 2-4q30-106 10-202t-80-175q-62-88-162-172 0-2-2-2-49-45-107-90-34-25-59-41-33-23-55-23l-6-2-5 2q-28 3-59 29-10 6-21 16t-16 13l-2 0q-246 188-328 340l0 2q-49 94-42 209z m85-10q-6-86 33-162 74-135 303-310l2 0q6-6 18-16t19-14q8-6 15-10 8 2 14 6 22 14 51 37 58 43 105 88 94 80 151 161 107 142 58 298-27 57-78 88t-113 29q-43 0-86-17-39-22-68-57l-32-43-35 43q-52 65-141 73t-161-53q-49-55-55-141z" horiz-adv-x="953" />

<glyph glyph-name="heart-1" unicode="&#xe828;" d="M1 532q7 111 75 183 94 80 212 70t190-98q38 49 92 79 113 43 217 3t150-140q30-106 10-199t-78-174q-68-94-174-184-53-49-124-103t-93-57q-13 2-28 12t-35 25-24 20q-264 199-348 357-49 96-42 206z" horiz-adv-x="955" />

<glyph glyph-name="help-circled" unicode="&#xe829;" d="M0 350q0 207 147 354t353 146 354-146 146-354-146-354-354-146-353 146-147 354z m316 264q-3-49 12-57l57 0q21 47 70 45 33 0 58-32t10-66q-9-23-29-55t-31-56q-20-41-21-90t21-97l70-2q-8 41 9 79t58 89 45 56q25 39 32 62t7 59q0 71-49 121-53 55-145 55-47 0-109-37t-65-74z m94-553q0-35 25-61t59-25 61 25 25 61-25 60-61 24-59-24-25-60z" horiz-adv-x="1000" />

<glyph glyph-name="tag" unicode="&#xe82a;" d="M0 100l0 500q0 51 36 88t89 37l594 0q68 0 105-59l156-250q43-66 0-132l-156-250q-37-59-105-59l-594 0q-53 0-89 36t-36 89z m63 0q0-25 18-44t44-18l594 0q35 0 52 29l157 250q21 33 0 66l-157 250q-17 29-52 29l-594 0q-25 0-44-18t-18-44l0-500z m562 250q0 39 27 66t67 28 66-28 27-66-27-66-66-28-67 28-27 66z m31 0q0-25 19-44t44-18 44 18 18 44-18 44-44 19-44-19-19-44z" horiz-adv-x="1002" />

<glyph glyph-name="heart-2" unicode="&#xe82b;" d="M775 849q126 0 207-80t81-207v-60q0-285-532-653-531 367-531 653v60q0 127 81 207t206 80q81 0 134-30t110-99q58 68 111 99t133 30z" horiz-adv-x="1063" />

<glyph glyph-name="heart-empty-2" unicode="&#xe82c;" d="M1063 562v-60q0-285-532-653-531 367-531 653v60q0 127 81 207t206 80q81 0 134-30t110-99q58 68 111 99t133 30q126 0 207-80t81-207z m-117-55v50q0 58-39 114t-95 61q-12 2-37 2-53 0-83-19t-72-69l-89-105-89 105q-42 49-72 69t-83 19q-24 0-37-2-56-6-93-60t-41-115v-50q0-30 17-75 68-199 398-441 329 239 399 441 16 50 16 75z" horiz-adv-x="1063" />

<glyph glyph-name="tag-1" unicode="&#xe82d;" d="M1000 714v-270l-595-595-405 405 595 595h270z m-160-160q28 28 28 68t-28 67-67 28-68-28-28-67 28-68 68-28 67 28z" horiz-adv-x="1000" />

<glyph glyph-name="122-heart" unicode="&#xe82e;" d="M992 757a271 271 0 0 1-205 93c-112 0-198-60-249-173-51 113-136 173-248 173a271 271 0 0 1-205-93 367 367 0 0 1-85-248c0-119 68-251 202-391a1717 1717 0 0 1 281-232c11-7 34-23 34-23l21-13 21 14s24 15 35 22a1718 1718 0 0 1 280 232c135 140 203 272 203 391a367 367 0 0 1-85 248z m-175-570a1625 1625 0 0 0-266-220l-13-9-13 9a1625 1625 0 0 0-265 220c-115 119-176 231-176 322 0 146 85 247 206 247 79 0 135-39 172-119a422 422 0 0 0 34-132l2 0h82a424 424 0 0 0 33 129c37 81 95 122 174 122 121 0 206-102 206-247 0-91-61-203-176-322z" horiz-adv-x="1077" />

<glyph glyph-name="25418" unicode="&#xe82f;" d="M409 850h-273a132 132 0 0 1-96-40 132 132 0 0 1-40-96v-273a132 132 0 0 1 40-97 132 132 0 0 1 96-39h160a68 68 0 0 0 68-69v-22a175 175 0 0 0-54-129 175 175 0 0 0-128-53h-46a44 44 0 0 1-32-14 44 44 0 0 1-13-32v-91a44 44 0 0 1 13-32 44 44 0 0 1 32-13h46a354 354 0 0 1 141 29 366 366 0 0 1 116 77 367 367 0 0 1 78 117 354 354 0 0 1 29 141v500a136 136 0 0 1-137 136z m733-40a132 132 0 0 1-96 40h-273a136 136 0 0 1-137-136v-273a136 136 0 0 1 137-136h159a68 68 0 0 0 68-69v-22a182 182 0 0 0-182-182h-45a46 46 0 0 1-46-46v-91a46 46 0 0 1 46-45h45a354 354 0 0 1 141 29 360 360 0 0 1 194 194 354 354 0 0 1 29 141v500a132 132 0 0 1-40 96z" horiz-adv-x="1182" />

<glyph glyph-name="32195" unicode="&#xe830;" d="M877 850a123 123 0 0 1-87-36l-754-754a123 123 0 0 1 174-174l667 667 668-667a123 123 0 1 1 173 174l-754 754a123 123 0 0 1-87 36z" horiz-adv-x="1754" />

<glyph glyph-name="59377" unicode="&#xe831;" d="M793 842a20 20 0 0 1-16 8h-547a20 20 0 0 1-20-16l-23-93a20 20 0 0 1 20-25h192l-175-732h-181a20 20 0 0 1-20-16l-22-93a20 20 0 0 1 19-25h547a20 20 0 0 1 20 16l23 93a20 20 0 0 1-20 25h-189l175 732h178a20 20 0 0 1 20 16l22 93a20 20 0 0 1-3 17z" horiz-adv-x="797" />

<glyph glyph-name="right-open-1" unicode="&#xe832;" d="M154 849l500-500-500-500-154 154 346 346-346 346z" horiz-adv-x="654" />

<glyph glyph-name="left-open-1" unicode="&#xe833;" d="M308 349l346-346-154-154-500 500 500 500 154-154z" horiz-adv-x="654" />

<glyph glyph-name="link" unicode="&#xe834;" d="M1000 583q0-112-78-188l-175-176q-78-78-189-78-97 0-171 63l115 115q26-17 56-17 44 0 75 31l175 176q31 29 31 74 0 44-30 75t-75 30q-25 0-49-12t-33-34h-238l132 129q80 78 188 78 110 0 188-78t78-188z m-387-89l-115-115q-26 17-56 17-44 0-75-31l-175-176q-31-29-31-74 0-44 31-74t74-31q25 0 50 12t32 34h238l-132-129q-80-78-188-78-110 0-188 78t-78 188q0 112 78 188l175 176q78 78 189 78 97 0 171-63z" horiz-adv-x="1000" />

<glyph glyph-name="search" unicode="&#xe835;" d="M746 209l254-255-105-105-254 254q-106-72-232-72-169 0-289 120t-120 289 120 289 289 120 289-120 120-289q0-127-72-231z m-65 231q0 113-79 193t-193 80-193-80-80-193 80-192 193-80 193 80 79 192z" horiz-adv-x="1000" />

<glyph glyph-name="cw-circle" unicode="&#xe836;" d="M1000 349q0-136-67-251t-182-182-251-67-251 67-182 182-67 251 67 251 182 182 251 67 251-67 182-182 67-251z m-260-80l180 180h-120q-30 92-118 153t-187 60q-131 0-224-92t-93-224 93-223 224-93 223 92l-62 71q-66-64-156-64-91 0-155 65t-65 155 65 156 155 64q95 0 156-64 8-8 12-16t6-21 6-19h-120z" horiz-adv-x="1000" />

<glyph glyph-name="tag-2" unicode="&#xe837;" d="M0 483l0 287q2 31 24 54t52 22l287 0q88-6 133-55l426-472q19-28 19-58t-19-52l-334-334q-25-21-57-21t-52 21l-424 475q-55 64-55 133z m125 164q2-31 23-52t51-20q32 0 52 22t21 50q0 33-23 54t-50 20q-33-2-53-23t-21-51z" horiz-adv-x="941" />

<glyph glyph-name="plus-1" unicode="&#xe838;" d="M0 209l0 282 359 0 0 359 282 0 0-359 359 0 0-282-359 0 0-359-282 0 0 359-359 0z" horiz-adv-x="1000" />

<glyph glyph-name="102555" unicode="&#xe839;" d="M383 104c183 0 305 116 305 288v458h-202v-445a102 102 0 1 0-203 0v445h-203v-458a281 281 0 0 1 83-208 310 310 0 0 1 220-80z" horiz-adv-x="762" />

<glyph glyph-name="minus-1" unicode="&#xe83a;" d="M0 209l0 282 1000 0 0-282-1000 0z" horiz-adv-x="1000" />

<glyph glyph-name="ok-2" unicode="&#xe83b;" d="M0 260l162 162 166-164 508 510 164-164-510-510-162-162-162 164z" horiz-adv-x="1000" />

<glyph glyph-name="ok-circled" unicode="&#xe83c;" d="M0 350q0 207 147 354t353 146 354-146 146-354-146-354-354-146-353 146-147 354z m182-57l105-105 104-104 103 104 324 324-103 104-324-325-106 106z" horiz-adv-x="1000" />

<glyph glyph-name="ok-circled2" unicode="&#xe83d;" d="M0 350q0 207 147 354t353 146 354-146 146-354-146-354-354-146-353 146-147 354z m109 0q0-162 115-276t276-115 276 115 115 276-115 276-276 115-276-115-115-276z m106-51l94 92 93-94 289 291 94-93-291-289-92-94-93 94z" horiz-adv-x="1000" />

<glyph glyph-name="cancel-3" unicode="&#xe83e;" d="M0 71l279 279-279 279 221 221 279-279 279 279 221-221-279-279 279-279-221-221-279 279-279-279z" horiz-adv-x="1000" />

<glyph glyph-name="minus-circle" unicode="&#xe83f;" d="M465 797q184 0 315-131t131-316-131-315-315-132-316 132-131 315 131 316 316 131z m223-502l0 112-447 0 0-112 447 0z" horiz-adv-x="928" />

<glyph glyph-name="minus-2" unicode="&#xe840;" d="M18 239l0 223 893 0 0-223-893 0z" horiz-adv-x="928" />

<glyph glyph-name="plus-circle" unicode="&#xe841;" d="M465 797q184 0 315-131t131-316-131-315-315-132-316 132-131 315 131 316 316 131z m223-502l0 112-167 0 0 167-112 0 0-167-168 0 0-112 168 0 0-168 112 0 0 168 167 0z" horiz-adv-x="928" />

<glyph glyph-name="plus-2" unicode="&#xe842;" d="M911 462l0-223-335 0 0-336-223 0 0 336-335 0 0 223 335 0 0 335 223 0 0-335 335 0z" horiz-adv-x="928" />

<glyph glyph-name="cancel-circle" unicode="&#xe843;" d="M465 797q184 0 315-131t131-316-131-315-315-132-316 132-131 315 131 316 316 131z m220-588l-141 142 141 141-79 79-142-141-141 141-79-79 141-141-141-142 79-79 141 141 142-141z" horiz-adv-x="928" />

<glyph glyph-name="cancel-4" unicode="&#xe844;" d="M799 116l-156-157-234 235-235-235-156 157 234 234-234 234 156 157 235-235 234 235 156-157-234-234z" horiz-adv-x="817" />

<glyph glyph-name="ok-circle" unicode="&#xe845;" d="M465 797q184 0 315-131t131-316-131-315-315-132-316 132-131 315 131 316 316 131z m-70-653l348 348-79 79-269-268-126 126-79-78z" horiz-adv-x="928" />

<glyph glyph-name="ok-3" unicode="&#xe846;" d="M352-10l-334 333 158 160 176-174 400 401 159-160z" horiz-adv-x="928" />

<glyph glyph-name="up-open" unicode="&#xe847;" d="M564 280q16-16 16-41t-16-41q-38-38-78 0l-196 188-196-188q-40-38-78 0-16 16-16 41t16 41l234 224q16 16 40 16t40-16z" horiz-adv-x="580" />

<glyph glyph-name="right-open-2" unicode="&#xe848;" d="M98 626l226-236q16-16 16-40 0-22-16-38l-226-236q-16-16-40-16t-40 16q-36 36 0 80l186 194-186 196q-36 44 0 80 16 16 41 16t39-16z" horiz-adv-x="340" />

<glyph glyph-name="102576" unicode="&#xe849;" d="M644 381a223 223 0 0 1 141 211 232 232 0 0 1-99 200 371 371 0 0 1-210 58h-476v-168h84v-664h-84v-168h447a490 490 0 0 1 259 64 259 259 0 0 1 120 232 231 231 0 0 1-182 235z m-220 73h-144v228h129c127 0 179-32 179-109 0-98-89-119-164-119z m-144-173h152c140 0 197-37 197-127s-68-136-204-136h-145z" horiz-adv-x="826" />

<glyph glyph-name="102579" unicode="&#xe84a;" d="M1071 259v131h-440v293h147v-141h171v308h-828v-308h172v141h146v-293h-439v-131h439v-242h-70v-167h338v167h-76v242z" horiz-adv-x="1071" />

<glyph glyph-name="148744" unicode="&#xe84b;" d="M500 850a500 500 0 1 0-500-500 500 500 0 0 0 500 500z m261-498l-380-260v519z m-380-277a17 17 0 0 0-18 17v519a17 17 0 0 0 27 14l381-259a17 17 0 0 0 0-29l-381-259a17 17 0 0 0-9-3z m17 503v-453l332 227z" horiz-adv-x="1000" />

<glyph glyph-name="447031" unicode="&#xe84c;" d="M362 850a363 363 0 0 1-362-362c0-248 324-612 338-627a33 33 0 0 1 48 0c14 15 338 379 338 627a363 363 0 0 1-362 362z m0-544a182 182 0 1 0 182 182 182 182 0 0 0-182-182z" horiz-adv-x="724" />

<glyph glyph-name="left-open-2" unicode="&#xe84d;" d="M242 626q14 16 39 16t41-16q38-36 0-80l-186-196 186-194q38-44 0-80-16-16-40-16t-40 16l-226 236q-16 16-16 38 0 24 16 40 206 214 226 236z" horiz-adv-x="341" />

<glyph glyph-name="565693" unicode="&#xe84e;" d="M792 371s-84-90-84-146a83 83 0 0 1 167 0c0 56-83 146-83 146z m-474 479l-59-59 99-99-215-215a63 63 0 0 1 0-88l229-229a62 62 0 0 1 89 0l229 229a63 63 0 0 1 0 89z m-101-417l200 200 200-200z" horiz-adv-x="1000" />

<glyph glyph-name="565715" unicode="&#xe84f;" d="M325 400a75 75 0 1 1-75 75 75 75 0 0 1 75-75z m175 450a500 500 0 1 1 500-500 500 500 0 0 1-500 500z m0-900a400 400 0 1 0 400 400 400 400 0 0 0-400-400z m175 450a75 75 0 1 1-75 75 75 75 0 0 1 75-75z m-175-325a274 274 0 0 1 255 175h-510a274 274 0 0 1 255-175z" horiz-adv-x="1000" />

<glyph glyph-name="down-open" unicode="&#xe850;" d="M564 422l-234-224q-18-18-40-18t-40 18l-234 224q-16 16-16 41t16 41q38 38 78 0l196-188 196 188q40 38 78 0 16-16 16-41t-16-41z" horiz-adv-x="580" />

<glyph glyph-name="724927" unicode="&#xe851;" d="M1352 380l-409 455a46 46 0 0 1-34 15h-273a45 45 0 0 1-33-76l381-424-381-424a46 46 0 0 1 33-76h273a46 46 0 0 1 34 15l409 454a46 46 0 0 1 0 61z m-591 0l-409 455a46 46 0 0 1-34 15h-272a45 45 0 0 1-34-76l381-424-381-424a46 46 0 0 1 34-76h272a46 46 0 0 1 34 15l409 454a46 46 0 0 1 0 61z" horiz-adv-x="1364" />

<glyph glyph-name="down-open-mini" unicode="&#xe852;" d="M405 470q22 26 48 0 26-22 0-48l-196-192q-22-22-48 0l-196 192q-26 26 0 48 24 24 50 0l170-156z" horiz-adv-x="466" />

<glyph glyph-name="left-open-mini" unicode="&#xe853;" d="M252 180q26-26 0-48-26-26-48 0l-192 194q-24 24 0 50l192 194q22 26 48 0 26-22 0-48l-156-172z" horiz-adv-x="265" />

<glyph glyph-name="right-open-mini" unicode="&#xe854;" d="M13 180l158 170-158 172q-26 26 0 48 26 26 48 0l192-194q24-26 0-50l-192-194q-22-26-48 0-26 22 0 48z" horiz-adv-x="265" />

<glyph glyph-name="747989" unicode="&#xe855;" d="M836 686a476 476 0 0 1-672-672 476 476 0 0 1 582-71 37 37 0 1 1-38 63 405 405 0 1 0 125 121 37 37 0 1 1 62-41 475 475 0 0 1-59 601z m-336-49a37 37 0 0 1-37-37v-282l-136-137a37 37 0 1 1 52-52l147 147a37 37 0 0 1 11 26v298a37 37 0 0 1-37 37z" horiz-adv-x="1000" />

<glyph glyph-name="up-open-mini" unicode="&#xe856;" d="M62 230q-26-22-50 0-24 24 0 50l196 190q26 26 48 0l196-190q24-26 0-50-24-22-50 0l-170 158z" horiz-adv-x="464" />

<glyph glyph-name="815471" unicode="&#xe857;" d="M590 850a410 410 0 0 1-316-672l-262-261a39 39 0 1 1 55-56l263 262a410 410 0 0 1 461-41 39 39 0 1 1-39 68 332 332 0 1 0 127 126 39 39 0 1 1 67-39 410 410 0 0 1-356 613z" horiz-adv-x="1000" />

<glyph glyph-name="992658" unicode="&#xe858;" d="M990 449a500 500 0 0 1-573 394l-3 0a500 500 0 0 1-391-643 374 374 0 0 0-19-270 42 42 0 0 1 49-58l186 51a496 496 0 0 1 260-73 504 504 0 0 1 100 10 500 500 0 0 1 391 589z m-143-330a417 417 0 0 0-578-116 42 42 0 0 1-23 7 43 43 0 0 1-11-1l-127-35a458 458 0 0 1-5 251 411 411 0 0 0-13 54 417 417 0 0 0 337 481c1 0 1 0 2 1a417 417 0 0 0 418-642z m-180 356h-334a42 42 0 0 1 0-83h334a42 42 0 0 1 0 83z m0-167h-334a42 42 0 0 1 0-83h334a42 42 0 0 1 0 83z" horiz-adv-x="1000" />

<glyph glyph-name="992677" unicode="&#xe859;" d="M1066 212l-248 138 248 138a44 44 0 0 1 0 77l-500 279a44 44 0 0 1-43 0l-500-279a44 44 0 0 1 0-77l247-138-247-138a44 44 0 0 1 0-77l500-279a44 44 0 0 1 21-6 44 44 0 0 1 22 6l500 279a44 44 0 0 1 0 77z m-931 315l409 228 410-228-410-228z m409-582l-409 228 226 127 162-91a44 44 0 0 1 21-5 44 44 0 0 1 22 5l162 91 226-127z" horiz-adv-x="1088" />

<glyph glyph-name="1004737" unicode="&#xe85a;" d="M958 392a42 42 0 0 1-41-42 417 417 0 1 0-121 294 42 42 0 1 1 59 58 500 500 0 1 1 145-352 42 42 0 0 1-42 42z m-303 113a42 42 0 0 1-59 0l-96-96-95 96a42 42 0 0 1-59-59l95-96-95-95a42 42 0 1 1 59-59l95 95 96-95a42 42 0 0 1 59 59l-96 95 96 96a42 42 0 0 1 0 59z" horiz-adv-x="1000" />

<glyph glyph-name="down-open-big" unicode="&#xe85b;" d="M63 570l370-356 372 356q22 26 48 0 26-22 0-48l-396-392q-22-22-48 0l-396 392q-26 26 0 48 24 24 50 0z" horiz-adv-x="866" />

<glyph glyph-name="left-open-big" unicode="&#xe85c;" d="M452-20q26-26 0-48-26-26-48 0l-392 394q-24 24 0 50l392 394q22 26 48 0 26-22 0-48l-358-372z" horiz-adv-x="465" />

<glyph glyph-name="right-open-big" unicode="&#xe85d;" d="M13-20l358 370-358 372q-26 26 0 48 26 26 48 0l392-394q24-26 0-50l-392-394q-22-26-48 0-26 22 0 48z" horiz-adv-x="465" />

<glyph glyph-name="up-open-big" unicode="&#xe85e;" d="M804 130l-372 358-370-358q-26-22-50 0-24 24 0 50l396 390q26 26 48 0l396-390q24-26 0-50-26-22-48 0z" horiz-adv-x="864" />

<glyph glyph-name="1059106" unicode="&#xe85f;" d="M0 350l456 500v-299h53a491 491 0 0 0 491-491v-210l-88 96a628 628 0 0 1-456 204v-300z m941-349v59a432 432 0 0 1-432 432h-112v207l-318-349 318-348v207h53a686 686 0 0 0 491-208z m0 0" horiz-adv-x="1000" />

<glyph glyph-name="1621478" unicode="&#xe860;" d="M489-150a132 132 0 0 0-94 39l-349 349a158 158 0 0 0 0 224l349 349a132 132 0 0 0 226-93v-318h674a53 53 0 0 0 0-105h-674a105 105 0 0 0-105 105v318a26 26 0 0 1-17 25 26 26 0 0 1-29-6l-349-350a53 53 0 0 1 0-74l349-350a26 26 0 0 1 29-5 26 26 0 0 1 17 24v113a53 53 0 1 0 105 0v-113a131 131 0 0 0-81-122 133 133 0 0 0-51-10z m0 0" horiz-adv-x="1347" />

<glyph glyph-name="1842869" unicode="&#xe861;" d="M748 543l39 39a39 39 0 0 1-55 55l-39-39a419 419 0 0 1-231 96v78h37a39 39 0 0 1 0 78h-153a39 39 0 0 1 0-78h38v-78a423 423 0 1 1 364-151z m-325-615a345 345 0 1 0 344 345 345 345 0 0 0-344-345z m180 526a39 39 0 0 0 0-56l-153-153a39 39 0 0 0-55 56l153 153a39 39 0 0 0 55 0z m0 0" horiz-adv-x="845" />

<glyph glyph-name="2087967" unicode="&#xe862;" d="M893 136h214a36 36 0 0 1 36 35v643a36 36 0 0 1-36 36h-214a36 36 0 0 1-36-36v-643a36 36 0 0 1 36-35z m36 643h142v-572h-142z m-797-572h211a36 36 0 0 0 31-53l-74-134a107 107 0 0 1 67-156l53-13a36 36 0 0 1 35 11l285 316a179 179 0 0 1 46 120v302a179 179 0 0 1-179 179h-355a179 179 0 0 1-172-132l-77-278a132 132 0 0 1 129-162z m-59 144l76 277a107 107 0 0 0 103 79h355a107 107 0 0 0 107-107v-302a107 107 0 0 0-27-72l-271-300-31 7a36 36 0 0 0-23 52l75 134a107 107 0 0 1-94 160h-211a61 61 0 0 0-61 60 59 59 0 0 0 2 12z" horiz-adv-x="1143" />

<glyph glyph-name="plus-3" unicode="&#xe863;" d="M550 400q30 0 30-50t-30-50l-210 0 0-210q0-30-50-30t-50 30l0 210-210 0q-30 0-30 50t30 50l210 0 0 210q0 30 50 30t50-30l0-210 210 0z" horiz-adv-x="580" />

<glyph glyph-name="2087973" unicode="&#xe864;" d="M0 493v-572a71 71 0 0 1 71-71h215v714h-215a71 71 0 0 1-71-71z m1011 0h-211a36 36 0 0 0-31 53l74 134a107 107 0 0 1-68 156l-52 13a36 36 0 0 1-35-11l-285-316a179 179 0 0 1-46-120v-373a179 179 0 0 1 179-179h355a179 179 0 0 1 172 131l77 350a132 132 0 0 1-129 162z" horiz-adv-x="1143" />

<glyph glyph-name="2111710" unicode="&#xe865;" d="M500-150a500 500 0 1 1-500 500 500 500 0 0 1 500-500z m-271 511l482 186c22 8 42-6 34-40l0 0-81-386c-7-28-23-34-46-21l-125 92-60-58a32 32 0 0 0-25-13l9 128 231 209c10 9-2 14-15 5l-286-180-124 38c-27 9-27 27 6 40z" horiz-adv-x="1000" />

<glyph glyph-name="2121932" unicode="&#xe866;" d="M1202-76c32 45 62 252 62 426 0 162-28 378-62 426a52 52 0 0 1-24 18c-226 86-1036 66-1111-13a54 54 0 0 1-10-16c-42-101-57-299-57-415 0-116 16-318 57-416a54 54 0 0 1 10-15c75-79 885-99 1111-13a52 52 0 0 1 24 18z m-383 426l313 298a1593 1593 0 0 0 0-596z m235 367l-422-401-422 401c224 39 619 40 844 0z m-922-665a1593 1593 0 0 0 0 596l314-298z m78-69l311 295 75-71a52 52 0 0 1 72 0l75 71 311-295c-224-39-619-39-844 0z" horiz-adv-x="1264" />

<glyph glyph-name="2463874" unicode="&#xe867;" d="M670 495h-118v99h118z m-335 8v209h51a358 358 0 0 1 64 6l-17 25a197 197 0 0 1-164 87h-210a39 39 0 0 1-39-39 79 79 0 0 1 40-68l-1 0v-11a118 118 0 0 1 40-88l0 0v-30a118 118 0 0 1 39-88l0 0v-30a118 118 0 0 1 118-119h19a197 197 0 0 1 83 19l0 0a364 364 0 0 0-23 127z m867 288a39 39 0 0 1-39 39h-210a197 197 0 0 1-164-87l-16-25a360 360 0 0 1 63-6h51v-209a363 363 0 0 0-23-127l0 0a197 197 0 0 1 83-19h19a118 118 0 0 1 118 119v30l0 0a118 118 0 0 1 40 88v30l0 0a118 118 0 0 1 39 88v11l-1 0a79 79 0 0 1 40 68z m20 0a59 59 0 0 1-59 59h-210a216 216 0 0 1-180-97l-9-13a341 341 0 0 0-141 66l-12 10-12-10a341 341 0 0 0-140-66l-9 13a216 216 0 0 1-181 97h-210a59 59 0 0 1-59-59 98 98 0 0 1 39-78v-1a138 138 0 0 1 40-96v-22a138 138 0 0 1 39-97v-21a138 138 0 0 1 138-138h19a214 214 0 0 1 33 2l-119-445 162 46 114-91 82 302a186 186 0 0 1 128 0l83-302 114 91 161-46-119 445a214 214 0 0 1 33-2h19a138 138 0 0 1 138 138v21a138 138 0 0 1 39 97v22a138 138 0 0 1 40 96v1a98 98 0 0 1 39 78z m-355-288a343 343 0 0 0-190-308 145 145 0 0 0-46-13v156h98a59 59 0 0 1 60 59v157a59 59 0 0 1-60 59h-98v140a381 381 0 0 1 205-61h31z m-512 0v189h31a381 381 0 0 1 205 61v-139h-98a59 59 0 0 1-59-60v-157a59 59 0 0 1 59-59h98v-156a145 145 0 0 0-46 13 343 343 0 0 0-190 308z m138-126a20 20 0 0 0-20 20v157a20 20 0 0 0 20 20h236a20 20 0 0 0 20-20v-157a20 20 0 0 0-20-20z m-237 0a98 98 0 0 0-98 92 137 137 0 0 1 59-13h59v39h-59a98 98 0 0 0-98 92 137 137 0 0 1 58-13h60v40h-60a99 99 0 0 0-96 80 97 97 0 0 1 18-2h98v40h-98a59 59 0 0 0-59 59 20 20 0 0 0 19 20h210a177 177 0 0 0 147-78c-10-1-20-1-30-1h-71v-229a387 387 0 0 1 19-116 179 179 0 0 0-59-10z m186-459l-65 52 56 205-38 10-56-206-94-27 105 392a382 382 0 0 1 161-175z m441 61l-56 206-38-10 56-205-65-52-69 251a382 382 0 0 1 161 175l105-392z m241 753h-99v-40h99a97 97 0 0 1 18 2 99 99 0 0 0-97-80h-59v-40h59a137 137 0 0 1 58 13 98 98 0 0 0-98-92h-59v-39h59a137 137 0 0 1 59 13 98 98 0 0 0-98-92h-19a179 179 0 0 0-58 10 386 386 0 0 1 18 116v229h-71c-10 0-20 0-29 1a177 177 0 0 0 146 78h210a20 20 0 0 0 20-20 59 59 0 0 0-59-59z" horiz-adv-x="1222" />

<glyph glyph-name="minus-3" unicode="&#xe868;" d="M550 400q30 0 30-50t-30-50l-520 0q-30 0-30 50t30 50l520 0z" horiz-adv-x="580" />

<glyph glyph-name="3003955" unicode="&#xe869;" d="M205 289h176v-58h-176z m0-117h352v-59h-352z m799 92l-87 118a293 293 0 1 1-528 175v-4a351 351 0 0 1-286-566l-103-137h381a352 352 0 0 1 346 414h277z m-556 293a234 234 0 1 0 409-155l-15-18 45-61h-176a353 353 0 0 1-263 223v11z m-67-648h-264l61 80-16 18a293 293 0 1 0 219-98z" horiz-adv-x="1004" />

<glyph glyph-name="3884252" unicode="&#xe86a;" d="M970-150h-673a297 297 0 0 0-297 297v406a297 297 0 0 0 297 297h673a297 297 0 0 0 297-297v-406a297 297 0 0 0-297-297z m-673 901a198 198 0 0 1-198-198v-406a198 198 0 0 1 198-198h673a198 198 0 0 1 198 198v406a198 198 0 0 1-198 198z m518-489l245 187a50 50 0 0 1-60 79l-245-187a199 199 0 0 0-240 0l-237 184a50 50 0 0 1-61-78l237-184 1 0a298 298 0 0 1 360 0z" horiz-adv-x="1267" />

<glyph glyph-name="tag-3" unicode="&#xe86b;" d="M944 830q36-106-8-199t-128-157l18-24q16-28 6-54l-48-158q-12-30-36-46l-464-328q-42-30-64 4l-210 304q-12 18-9 39t21 33l464 328q26 18 54 18l158 0q30 0 48-26l28-40q168 130 114 286-10 28 18 40 32 8 38-20z m-216-468q40 32 34 80l-32-16q-8-4-12-4-18 0-28 18-12 30 16 40l24 14q-48 34-92 0-28-18-34-51t14-61q18-26 51-32t59 12z" horiz-adv-x="960" />

<glyph glyph-name="asset-2" unicode="&#xe86c;" d="M836 686a476 476 0 0 1-672-672 476 476 0 0 1 582-71 37 37 0 1 1-38 63 405 405 0 1 0 125 121 37 37 0 1 1 62-41 475 475 0 0 1-59 601z m-336-49a37 37 0 0 1-37-37v-282l-136-137a37 37 0 1 1 52-52l147 147a37 37 0 0 1 11 26v298a37 37 0 0 1-37 37z" horiz-adv-x="1000" />

<glyph glyph-name="asset-6" unicode="&#xe86d;" d="M894 291a174 174 0 0 1 29 98 156 156 0 0 1-154 153h-106a264 264 0 0 1 29 116 249 249 0 0 1-21 112 132 132 0 0 1-61 61 205 205 0 0 1-91 19 76 76 0 0 1-54-22 145 145 0 0 1-37-65q-12-40-18-76a102 102 0 0 0-22-51q-29-32-64-77a532 532 0 0 0-82-94h-165a77 77 0 0 1-77-76v-385a77 77 0 0 1 77-77h173a444 444 0 0 0 83-24q74-26 130-39a485 485 0 0 1 114-14h77a192 192 0 0 1 137 48 170 170 0 0 1 51 132 169 169 0 0 1 36 107 182 182 0 0 1-2 26 173 173 0 0 1 23 87 157 157 0 0 1-5 41z m-752-276a38 38 0 1 0 12 27 37 37 0 0 0-12-27z m691 325q-13-28-32-28a81 81 0 0 0 15-29 108 108 0 0 0 6-33 95 95 0 0 0-32-72 83 83 0 0 0 11-41 101 101 0 0 0-10-44 67 67 0 0 0-29-32 206 206 0 0 0 3-34q0-100-115-100h-73a664 664 0 0 0-206 44q-3 1-17 6l-21 8q-7 2-21 7t-23 6q-9 2-20 4a121 121 0 0 1-19 2h-19v385h19a52 52 0 0 1 21 5 102 102 0 0 1 24 16q13 11 24 22a342 342 0 0 1 24 26q13 16 20 25t19 25q12 15 14 18 33 41 46 55a153 153 0 0 1 36 66q11 40 18 75a100 100 0 0 0 23 51 87 87 0 0 0 77-28 157 157 0 0 0 19-87 246 246 0 0 0-29-97 245 245 0 0 1-28-95h211a74 74 0 0 0 54-24 73 73 0 0 0 23-53 118 118 0 0 0-13-49z" horiz-adv-x="923" />

<glyph glyph-name="asset-7" unicode="&#xe86e;" d="M63 370a161 161 0 0 1-19-93 145 145 0 0 1 155-130l98 9a245 245 0 0 1-18-109 232 232 0 0 1 29-102 123 123 0 0 1 61-51 191 191 0 0 1 86-11 71 71 0 0 1 48 25 134 134 0 0 1 29 63q8 37 11 72a95 95 0 0 0 16 49q24 32 53 76a494 494 0 0 0 69 93l152 13a71 71 0 0 1 65 78l-31 356a72 72 0 0 1-78 65l-160-14a413 413 0 0 0-78 15q-71 18-124 26a450 450 0 0 1-106 3l-72-6a178 178 0 0 1-122-56 158 158 0 0 1-37-126 157 157 0 0 1-25-102 169 169 0 0 1 4-24 160 160 0 0 1-14-82 146 146 0 0 1 8-37z m673 316a35 35 0 1 0-9-26 34 34 0 0 0 9 26z m-613-356q10 26 28 28a75 75 0 0 0-17 25 100 100 0 0 0-8 31 88 88 0 0 0 24 69 77 77 0 0 0-14 37 94 94 0 0 0 7 42 62 62 0 0 0 23 31 191 191 0 0 0-5 31q-8 93 99 102l67 6a617 617 0 0 0 194-24q2-1 16-4l21-6q6-1 20-4t21-4q8-2 19-2a113 113 0 0 1 17-1l18 2 31-356-17-1a48 48 0 0 1-20-7 94 94 0 0 1-21-17q-10-11-19-22a318 318 0 0 1-20-26q-11-16-17-25t-16-25q-9-15-11-17-28-41-39-55a142 142 0 0 1-27-64q-7-38-11-71a92 92 0 0 0-17-49 81 81 0 0 0-74 20 146 146 0 0 0-24 79 228 228 0 0 0 18 91 228 228 0 0 1 19 91l-196-17a69 69 0 0 0-51 17 68 68 0 0 0-26 48 110 110 0 0 0 8 47z" horiz-adv-x="935" />

<glyph glyph-name="asset-10" unicode="&#xe86f;" d="M1023 513l-104-104-67 66a42 42 0 0 1-59-58l96-97a42 42 0 0 1 59 0l133 134a42 42 0 1 1-58 59z m-394 244l-2 0h-294a42 42 0 0 1 0-83h205a498 498 0 0 1-117-283h-242a42 42 0 1 1 0-83h241a498 498 0 0 1 118-282h-496a42 42 0 0 1 0-84c5 0 584 0 587 0a500 500 0 1 1 0 815z m290-824a417 417 0 1 0 416 417 416 416 0 0 0-416-417z m269 464a46 46 0 1 1 46-46 46 46 0 0 1-46 46z" horiz-adv-x="1418" />

<glyph glyph-name="asset-33" unicode="&#xe870;" d="M471 191l-20-279a69 69 0 0 1 55 27l134 127 275-202c51-28 87-13 100 46l182 849h0c16 75-28 104-77 86l-1064-408c-73-28-72-69-13-87l273-85 632 396c29 20 56 9 34-11z" horiz-adv-x="1200" />

<glyph glyph-name="asset-48" unicode="&#xe871;" d="M607-104a156 156 0 0 0-220 0l-341 341a156 156 0 0 0 220 220l203-203a40 40 0 0 1 56 0l551 550a156 156 0 1 0 220-220z" horiz-adv-x="1341" />

<glyph glyph-name="455691" unicode="&#xe872;" d="M610 460a227 227 0 0 1-39 32 233 233 0 0 1-291-32l-212-212a233 233 0 0 1 330-330l175 175a17 17 0 0 1-12 29h-7a281 281 0 0 0-106 20 17 17 0 0 1-18-4l-126-125a100 100 0 0 0-142 141l213 213a100 100 0 0 0 141 0 68 68 0 0 1 94 0 66 66 0 0 1 0 93z m322 322a233 233 0 0 1-330 0l-175-175a17 17 0 0 1 12-29h6a280 280 0 0 0 107-20 17 17 0 0 1 18 3l125 126a100 100 0 1 0 142-142l-157-156-1-1-55-55a100 100 0 0 0-141 0 68 68 0 0 1-94 0 66 66 0 0 1 0-94 231 231 0 0 1 67-46c4-2 7-3 11-5s7-3 10-4 7-2 11-3l10-3c7-2 13-3 20-4a232 232 0 0 1 25-3h13l10 2c3 0 7 1 11 1h6l12 1 5 1 10 2h1a233 233 0 0 1 108 61l213 213a233 233 0 0 1 0 330z" horiz-adv-x="1000" />

<glyph glyph-name="asset-8" unicode="&#xe873;" d="M990 449a500 500 0 0 1-573 394l-3 0a500 500 0 0 1-391-643 374 374 0 0 0-19-270 42 42 0 0 1 49-58l186 51a496 496 0 0 1 260-73 504 504 0 0 1 100 10 500 500 0 0 1 391 589z m-143-330a417 417 0 0 0-578-116 42 42 0 0 1-23 7 43 43 0 0 1-11-1l-127-35a458 458 0 0 1-5 251 411 411 0 0 0-13 54 417 417 0 0 0 337 481l2 1a417 417 0 0 0 418-642z m-181 356h-333a42 42 0 1 1 0-83h333a42 42 0 0 1 0 83z m0-167h-333a42 42 0 0 1 0-83h333a42 42 0 0 1 0 83z" horiz-adv-x="1000" />

<glyph glyph-name="asset-34" unicode="&#xe874;" d="M316 850c173 0 343-80 343-270 0-176-201-243-244-307-33-47-22-114-111-114a86 86 0 0 0-86 91c0 161 236 197 236 330 0 73-49 116-130 116-173 0-105-178-236-178a81 81 0 0 0-88 82c0 133 151 250 316 250z m-6-778a111 111 0 1 0-111-111 111 111 0 0 0 111 111z" horiz-adv-x="659" />

<glyph glyph-name="tag-4" unicode="&#xe875;" d="M665 541l-10-233-242-420c-11-20-36-27-55-16l-336 195c-20 11-28 36-17 56l243 420 197 124 95-54c7 18 5 19 9 36 9 39 18 108 95 167 26 22 66 22 103 3 20-8 37-23 50-40 12-18 18-38 20-57-2-24-13-56-65-81-42-19-77-24-109-28-29-4-51-6-70-19z m-10 258c-70-53-80-115-86-152 0-6-1-10-2-15-2-6 0-10-3-18 23 15 46 17 76 19 30 4 65 9 103 26 35 15 52 38 54 63 0 29-22 59-53 76-1 1-4 3-6 4-30 15-60 15-83-3z m-218-400c42-23 97-10 121 33 20 34 14 75-10 102l-43 27c-37 12-80-4-101-40-24-43-10-97 33-122z" horiz-adv-x="816" />

<glyph glyph-name="tag-5" unicode="&#xe876;" d="M389 797l522-522-371 0 0-372-522 523 0 371 371 0z m-167-310q44 0 76 31t31 75-31 75-76 32-75-32-31-75 31-75 75-31z" horiz-adv-x="928" />

<glyph glyph-name="tag-empty" unicode="&#xe877;" d="M344 557q0-36-25-61t-61-25-60 25-25 61 25 61 60 25 61-25 25-61z m-326 240l371 0 522-522-370 0 0-372-523 524 0 370z m329-100l-229 0 0-229 324-324 0 231 229 0q-63 62-193 192z" horiz-adv-x="928" />

<glyph glyph-name="tag-6" unicode="&#xe878;" d="M365 792q-109 0-185-76t-76-184 76-184l159-155 286-286 365 365q-369 369-441 444-76 76-184 76z m0 105q151 0 259-107 109-113 440-444 30-31 30-74t-30-74l-365-365q-30-30-74-30t-74 30l-270 270q-8 7-18 15l-157 157q-106 106-106 257t106 258q108 107 259 107z m0-286q-32 0-56-23t-23-56 23-55 56-22 55 22 23 55-23 56-55 23z m0 51q54 0 92-38t38-92-38-92-92-38-92 38-38 92 38 92 92 38z" horiz-adv-x="1094" />

<glyph glyph-name="asset-35" unicode="&#xe879;" d="M958 392a42 42 0 0 1-41-42 417 417 0 1 0-121 294 42 42 0 1 1 59 58 500 500 0 1 1 145-352 42 42 0 0 1-42 42z m-303 113a42 42 0 0 1-59 0l-96-96-95 96a42 42 0 0 1-59-59l95-96-95-95a42 42 0 1 1 59-59l95 95 96-95a42 42 0 0 1 59 59l-96 95 96 96a42 42 0 0 1 0 59z" horiz-adv-x="1000" />

<glyph glyph-name="asset-52" unicode="&#xe87a;" d="M1041 472a55 55 0 0 1-48 38l-301 28-119 278a56 56 0 0 1-102 0l-119-278-302-28a56 56 0 0 1-31-97l228-199-68-296a56 56 0 0 1 83-60l260 155 259-155a56 56 0 0 1 83 60l-67 296 227 199a56 56 0 0 1 17 59z m-514-456" horiz-adv-x="1043" />

<glyph glyph-name="asset-39" unicode="&#xe87b;" d="M1984 431h-1708l283 281a81 81 0 0 1-114 115l-421-420 0 0a81 81 0 0 1 0-114l0 0 421-419a81 81 0 0 1 114 114l-283 282h1708a81 81 0 0 1 0 161z" horiz-adv-x="2064" />

<glyph glyph-name="1658631" unicode="&#xe87c;" d="M594 850h-555a39 39 0 0 1-39-39v-922a39 39 0 0 1 39-39h555a39 39 0 0 1 39 39v922a39 39 0 0 1-39 39z m-39-922h-477v844h137a39 39 0 0 1 23-70h157a39 39 0 0 1 23 70h137z m-279 384l159 159a39 39 0 0 0 56-55c-131-108-190-239-242-187l-107 107a39 39 0 0 0 55 55z m0 0" horiz-adv-x="633" />

<glyph glyph-name="2658259" unicode="&#xe87d;" d="M606-150h-372a235 235 0 0 0-234 234v532a235 235 0 0 0 234 234h532a235 235 0 0 0 234-234v-374a39 39 0 1 0-78 0v374a156 156 0 0 1-156 156h-532a156 156 0 0 1-156-156v-532a156 156 0 0 1 156-156h372a39 39 0 1 0 0-78z m199 754a39 39 0 0 1-39 39h-358a39 39 0 1 1 0-78h358a39 39 0 0 1 39 39z m0-156a39 39 0 0 1-39 39h-532a39 39 0 1 1 0-78h532a39 39 0 0 1 39 39z m-391-157a39 39 0 0 1-39 40h-141a39 39 0 0 1 0-79h141a39 39 0 0 1 39 39z m-219 317a49 49 0 1 1 49 49 49 49 0 0 1-49-49z m763-716a143 143 0 0 1 0 201l-137 137a282 282 0 0 1-144 78l-111 22a39 39 0 0 1-46-46l23-111a282 282 0 0 1 77-144l137-137a143 143 0 0 1 201 0z m-296 339a204 204 0 0 0 104-56l137-137a64 64 0 1 0-91-91l-137 137a204 204 0 0 0-56 104l-11 54z" horiz-adv-x="1000" />

<glyph glyph-name="1390471" unicode="&#xe87e;" d="M883 539h-100v311h-566v-311h-100a117 117 0 0 1-117-117v-316a117 117 0 0 1 117-117h100v-139h566v139h100a117 117 0 0 1 117 117v316a117 117 0 0 1-117 117z m-588 233h410v-233h-410z m0-844v260h410v-260z m627 178a39 39 0 0 0-39-39h-100v121h61v78h-688v-78h61v-121h-100a39 39 0 0 0-39 39v316a39 39 0 0 0 39 39h766a39 39 0 0 0 39-39z m-295 588v-78h-254v78z m0 0" horiz-adv-x="1000" />

<glyph glyph-name="tags" unicode="&#xe87f;" d="M1011 502q30-32 30-74t-30-73l-56-56 5-5q30-31 29-74t-30-73l-364-366q-30-30-74-30t-73 30q-227 227-342 338-106 106-106 258 0 102 54 188-8 165 105 278 106 106 257 106 153 0 259-106z m-490-647l364 365-336 340q-76 77-184 77-109 0-185-77t-76-183 76-184q115-111 341-338z m102 779l258-261 57 56-337 340q-76 76-185 76-107 0-183-76-35-35-54-79 86 52 186 52 150 0 258-108z m-258-179q-32 0-56-23t-23-55 23-55 56-23 55 23 23 55-23 55-55 23z m0 52q54 0 92-39t38-91-38-92-92-38-92 38-38 92 38 91 92 39z" horiz-adv-x="1041" />

<glyph glyph-name="dot-3" unicode="&#xe880;" d="M110 460q46 0 78-32t32-78q0-44-32-77t-78-33-78 33-32 77q0 46 32 78t78 32z m350 0q46 0 78-32t32-78q0-44-33-77t-77-33-77 33-33 77q0 46 32 78t78 32z m350 0q46 0 78-32t32-78q0-44-32-77t-78-33-78 33-32 77q0 46 32 78t78 32z" horiz-adv-x="920" />

<glyph glyph-name="spin3" unicode="&#xe881;" d="M494 850c-266 0-483-210-494-472-1-19 13-20 13-20l84 0c16 0 19 10 19 18 10 199 176 358 378 358 107 0 205-45 273-118l-58-57c-11-12-11-27 5-31l247-50c21-5 46 11 37 44l-58 227c-2 9-16 22-29 13l-65-60c-89 91-214 148-352 148z m409-508c-16 0-19-10-19-18-10-199-176-358-377-358-108 0-205 45-274 118l59 57c10 12 10 27-5 31l-248 50c-21 5-46-11-37-44l58-227c2-9 16-22 30-13l64 60c89-91 214-148 353-148 265 0 482 210 493 473 1 18-13 19-13 19l-84 0z" horiz-adv-x="1000" />

<glyph glyph-name="spin4" unicode="&#xe882;" d="M498 850c-114 0-228-39-320-116l0 0c173 140 428 130 588-31 134-134 164-332 89-495-10-29-5-50 12-68 21-20 61-23 84 0 3 3 12 15 15 24 71 180 33 393-112 539-99 98-228 147-356 147z m-409-274c-14 0-29-5-39-16-3-3-13-15-15-24-71-180-34-393 112-539 185-185 479-195 676-31l0 0c-173-140-428-130-589 31-134 134-163 333-89 495 11 29 6 50-12 68-11 11-27 17-44 16z" horiz-adv-x="1001" />

<glyph glyph-name="spin6" unicode="&#xe883;" d="M855 9c-189-190-520-172-705 13-190 190-200 494-28 695 11 13 21 26 35 34 36 23 85 18 117-13 30-31 35-76 16-112-5-9-9-15-16-22-140-151-145-379-8-516 153-153 407-121 542 34 106 122 142 297 77 451-83 198-305 291-510 222l0 1c236 82 492-24 588-252 71-167 37-355-72-493-11-15-23-29-36-42z" horiz-adv-x="1000" />

<glyph glyph-name="asset-72" unicode="&#xe884;" d="M500 850a500 500 0 1 1 500-500 501 501 0 0 1-500 500z m0-891a391 391 0 1 0 391 391 391 391 0 0 0-391-391z m43 390v210a42 42 0 1 1-84 0v-223c0-1 0-1 0-2a42 42 0 0 1 12-32l158-158a42 42 0 1 1 60 60z" horiz-adv-x="1000" />

<glyph glyph-name="asset-83" unicode="&#xe885;" d="M1231 732a526 526 0 0 0-145-40 251 251 0 0 1 111 139 504 504 0 0 0-161-61 252 252 0 0 1-436-172 260 260 0 0 1 6-58 714 714 0 0 0-520 264 252 252 0 0 1 77-337 249 249 0 0 0-114 31v-3a254 254 0 0 1 202-248 252 252 0 0 0-66-8 223 223 0 0 0-47 4 255 255 0 0 1 235-176 507 507 0 0 0-313-107 473 473 0 0 0-60 3 710 710 0 0 1 387-113c464 0 718 385 718 718 0 11 0 22-1 33a503 503 0 0 1 127 131z" horiz-adv-x="1231" />

<glyph glyph-name="asset-111" unicode="&#xe89d;" d="M205 289h176v-58h-176z m0-117h352v-59h-352z m799 92l-87 118a293 293 0 1 1-528 175v-4a351 351 0 0 1-286-566l-103-137h381a352 352 0 0 1 346 414h277z m-556 293a234 234 0 1 0 409-155l-15-18 45-61h-176a353 353 0 0 1-263 223v11z m-67-648h-264l61 80-16 18a293 293 0 1 0 219-98z" horiz-adv-x="1004" />

<glyph glyph-name="asset-131" unicode="&#xe8b1;" d="M731-150a39 39 0 0 0-40 39 278 278 0 0 1-277 277h-58a278 278 0 0 1-278-277 39 39 0 0 0-78 0 356 356 0 0 0 356 356h58a356 356 0 0 0 356-356 39 39 0 0 0-39-39z m-350 473a264 264 0 1 0 263 263 264 264 0 0 0-263-263z m0 449a186 186 0 1 1 185-185 186 186 0 0 1-185 185z" horiz-adv-x="770" />

<glyph glyph-name="asset-135" unicode="&#xe8b5;" d="M875 850h-750a125 125 0 0 1-125-125v-750a125 125 0 0 1 125-125h375v344h-125v156h125v125a188 188 0 0 0 188 188h125v-157h-63c-34 0-62 4-62-31v-125h156l-63-156h-93v-344h187a125 125 0 0 1 125 125v750a125 125 0 0 1-125 125z" horiz-adv-x="1000" />

<glyph glyph-name="asset-236" unicode="&#xe91a;" d="M893 136h214a36 36 0 0 1 36 35v643a36 36 0 0 1-36 36h-214a36 36 0 0 1-36-36v-643a36 36 0 0 1 36-35z m36 643h142v-572h-142z m-797-572h211a36 36 0 0 0 31-53l-74-134a107 107 0 0 1 67-156l53-13a36 36 0 0 1 35 11l285 316a179 179 0 0 1 46 120v302a179 179 0 0 1-179 179h-355a179 179 0 0 1-172-132l-77-278a132 132 0 0 1 129-162z m-59 144l76 277a107 107 0 0 0 103 79h355a107 107 0 0 0 107-107v-302a107 107 0 0 0-27-72l-271-300-31 7a36 36 0 0 0-23 52l74 134a107 107 0 0 1-93 160h-211a61 61 0 0 0-61 60 59 59 0 0 0 2 12z" horiz-adv-x="1143" />

<glyph glyph-name="asset-237" unicode="&#xe91b;" d="M0 493v-572a71 71 0 0 1 71-71h215v714h-215a71 71 0 0 1-71-71z m1011 0h-211a36 36 0 0 0-31 53l74 134a107 107 0 0 1-68 156l-52 13a36 36 0 0 1-35-11l-285-316a179 179 0 0 1-46-120v-373a179 179 0 0 1 179-179h355a179 179 0 0 1 172 131l76 350a132 132 0 0 1-128 162z" horiz-adv-x="1143" />

<glyph glyph-name="asset-238" unicode="&#xe91c;" d="M357 519a63 63 0 1 0-89 0 63 63 0 0 0 89 0m375 0a63 63 0 1 0-89 0 63 63 0 0 0 89 0m-232 331a500 500 0 1 1 500-500 501 501 0 0 1-500 500z m0-938a438 438 0 1 0 438 438 438 438 0 0 0-438-438z m0 376c-121 0-219-84-219-188h438c0 104-98 188-219 188z" horiz-adv-x="1000" />

<glyph glyph-name="asset-284" unicode="&#xe948;" d="M590 850a410 410 0 0 1-316-672l-262-261a39 39 0 1 1 55-56l263 262a410 410 0 0 1 461-41 39 39 0 1 1-39 68 332 332 0 1 0 127 126 39 39 0 1 1 67-39 410 410 0 0 1-356 613z" horiz-adv-x="1000" />

<glyph glyph-name="asset-288" unicode="&#xe94c;" d="M471 191l-20-279a69 69 0 0 1 55 27l134 127 275-202c51-28 87-13 100 46l182 849h0c16 75-28 104-77 86l-1064-408c-73-28-72-69-13-87l273-85 632 396c29 20 56 9 34-11z" horiz-adv-x="1200" />

<glyph glyph-name="asset-289" unicode="&#xe94d;" d="M1066 212l-248 138 248 138a44 44 0 0 1 0 77l-500 279a44 44 0 0 1-43 0l-500-279a44 44 0 0 1 0-77l247-138-247-138a44 44 0 0 1 0-77l500-279a44 44 0 0 1 21-6 44 44 0 0 1 22 6l500 279a44 44 0 0 1 0 77z m-931 315l409 228 410-228-410-228z m409-582l-409 228 226 127 162-91a44 44 0 0 1 21-5 44 44 0 0 1 22 5l162 91 226-127z" horiz-adv-x="1088" />

<glyph glyph-name="asset-290" unicode="&#xe94e;" d="M483-150a124 124 0 0 1 89 209l-277 292 277 289a124 124 0 1 1-179 172l-359-375a124 124 0 0 1 0-171l359-378a124 124 0 0 1 90-38z" horiz-adv-x="606" />

<glyph glyph-name="cancel-2" unicode="&#xe964;" d="M500 850a500 500 0 1 1 500-500 500 500 0 0 1-500 500z m189-691a51 51 0 0 0-73 0l-113 114-119-119a51 51 0 0 0-73 73l119 118-110 111a51 51 0 1 0 72 73l111-111 105 105a51 51 0 1 0 72-72l-105-105 114-114a51 51 0 0 0 0-73z" horiz-adv-x="1000" />

<glyph glyph-name="check-mark-1" unicode="&#xe967;" d="M854-4a500 500 0 1 1-707 0 500 500 0 0 1 707 0z m-533 430l112-112 247 246 87-87-246-246-88-87-87 87-112 112z" horiz-adv-x="1000" />

<glyph glyph-name="icon" unicode="&#xe96a;" d="M500 850a500 500 0 1 1 500-500 500 500 0 0 1-500 500z m0-819a65 65 0 0 0-66 69 65 65 0 0 0 66 69 64 64 0 0 0 66-69 65 65 0 0 0-66-69z m26 264c-10-34-41-35-52 0-12 40-55 191-55 289 0 130 162 130 162 0 0-99-45-254-55-289z" horiz-adv-x="1000" />

<glyph glyph-name="warning" unicode="&#xe985;" d="M1081 98l-387 669a164 164 0 0 1-285 0l-387-669a165 165 0 0 1 143-248h772a166 166 0 0 1 144 248z m-530-100a62 62 0 1 0 0 124 62 62 0 0 0 0-124z m56 398c-2-47-5-95-8-143-1-15-1-29-1-44a46 46 0 0 0-47-45 45 45 0 0 0-46 43c-4 75-8 147-12 222-2 19-3 39-5 59a67 67 0 0 0 48 67 62 62 0 0 0 71-35 73 73 0 0 0 6-31c-1-31-4-62-6-93z" horiz-adv-x="1103" />

<glyph glyph-name="xmlid_-1" unicode="&#xe987;" d="M42 451l357 357a143 143 0 0 0 244-101v-214h2357a143 143 0 1 0 0-286h-2357v-214a143 143 0 0 0-244-101l-357 357a143 143 0 0 0 0 202z" horiz-adv-x="3143" />

<glyph glyph-name="#000000ff" unicode="&#xe9a7;" d="M446 849c21 2 43 0 64 1 19 1 37-5 56-6a489 489 0 0 0 401-384 329 329 0 0 0 7-66 615 615 0 0 0 0-74 479 479 0 0 0-125-285c-15-17-31-31-47-47-2-43 0-87-1-130 0-8-11-10-17-6-34 18-68 38-103 56-9 6-20-2-29-5a503 503 0 0 0-123-27c-23-1-47 0-70 0a489 489 0 0 0-459 456c0 24 0 49 0 74a490 490 0 0 0 373 431c13 3 25 4 38 8 11 3 23 1 35 4m69-216a195 195 0 0 1-97-176 271 271 0 0 1 18-93 230 230 0 0 0 15-112 145 145 0 0 0-68-93 159 159 0 0 0-63-19 166 166 0 0 0-78 19 21 21 0 0 1 5-13 287 287 0 0 1 433-12 208 208 0 0 1 52 130 279 279 0 0 1-48 165c-16 24-35 45-51 69a143 143 0 0 0-37 97 111 111 0 0 0 35 64 180 180 0 0 1-115-26z" horiz-adv-x="976" />

<glyph glyph-name="007-clock" unicode="&#xe9a8;" d="M501-150c-445 0-668 540-354 854a503 503 0 0 0 707 0c314-314 91-854-353-854z m0 923a423 423 0 0 1-423-422c23-561 822-561 845 0a423 423 0 0 1-422 422z m182-549l-124 123a59 59 0 0 1-19 47c0 1 0 1 0 2v228a39 39 0 0 1-79 0v-229c0 0 0 0 0-1a59 59 0 0 1 43-102l123-124a39 39 0 0 1 56 56z" horiz-adv-x="1001" />

<glyph glyph-name="034-instagram" unicode="&#xe9aa;" d="M688 850h-375a313 313 0 0 1-313-312v-375a313 313 0 0 1 313-313h375a313 313 0 0 1 312 313v375a313 313 0 0 1-312 312z m218-687a219 219 0 0 0-218-219h-375a219 219 0 0 0-219 219v375a219 219 0 0 0 219 218h375a219 219 0 0 0 218-218z m-406 437a250 250 0 1 1 250-250 250 250 0 0 1-250 250z m0-406a156 156 0 1 0 156 156 157 157 0 0 0-156-156z" horiz-adv-x="1000" />

<glyph glyph-name="047-pin" unicode="&#xe9ac;" d="M501-150c-445 0-668 540-354 854a503 503 0 0 0 707 0c314-314 91-854-353-854z m0 923a423 423 0 0 1-423-422c23-561 822-561 845 0a423 423 0 0 1-422 422z m78-579a235 235 0 1 0 234 235 235 235 0 0 0-234-235z m0 391a156 156 0 1 1 156-156 157 157 0 0 1-156 156z m-301-491a39 39 0 0 0-27 67l72 71a39 39 0 0 0 54-56l-72-70a39 39 0 0 0-27-12z m381 335a80 80 0 0 1-80 80 39 39 0 0 1 0-78 2 2 0 0 0 2-2 39 39 0 0 1 78 0z" horiz-adv-x="1001" />

<glyph glyph-name="119-tag" unicode="&#xe9ad;" d="M521 835l-473-473a114 114 0 0 1 0-161l302-303a113 113 0 0 1 81-33h0a113 113 0 0 1 80 33l474 474v463z m389-432l-452-452a38 38 0 0 0-27-11h0a38 38 0 0 0-27 12l-303 303a38 38 0 0 0 0 53l451 452h358z" horiz-adv-x="1000" />

<glyph glyph-name="path-67" unicode="&#xe9b1;" d="M812 524a30 30 0 0 1-43 8l-95-72a29 29 0 0 1-7-38 256 256 0 0 0 36-131 264 264 0 1 0-293 262v-86a29 29 0 0 1 30-29 29 29 0 0 1 17 6l234 175a29 29 0 0 1 0 47l-234 178a29 29 0 0 1-17 6 29 29 0 0 1-30-29v-91a440 440 0 1 1 402-206z" horiz-adv-x="879" />

<glyph glyph-name="group-23358" unicode="&#xe9b2;" d="M2924 40h-647a32 32 0 0 1-32-31v-128a32 32 0 0 1 32-31h647a32 32 0 0 1 31 31v128a32 32 0 0 1-31 31z m-330 237l1 29c0-94 0 48 0-47v-2c0-84-12-142-94-191 115-22 214 15 233 118 16 83 4 221 4 310-102-10-148-107-144-217z m174 215l0-233v-2c0-84-12-142-94-191 115-22 214 15 234 118 17 95 3 230 3 336l0 161c-102-11-148-78-143-189z m77 209l-232 1h-3c-83 0-141-12-190-94-23 115 14 214 118 233 95 18 229 4 335 4l161 0c-11-102-78-148-189-144z m-513-562v389c-6 89-53 143-143 153l1-161c0-106-15-241 3-336 16-85 97-124 178-127 119-4 189 45 195 168v439c0 3 0 6 0 9-88-9-142-82-152-172v-362a41 41 0 1 0-82 0z m-629 351l-20 3h0q0-6 0-13v-269c1-9 2-18 4-27 16-86 126-127 231-131 105 4 214 45 230 131 2 9 3 18 4 27v269q0 7 0 13-2 0-4 0h0q-2-1-4-1l0 0q-2 0-4 0l0 0c-2-1-3-1-4-1-1 0-3-1-4-1l0 0c-1 0-2 0-3 0l-1-1c-1 0-3 0-4 0l0-1c-2 0-5-1-7-1l-1 0q-3-1-7-3l0 0c-1 0-2 0-3-1l0 0q-4-1-7-2l0 0q-4-2-7-3l0 0q-5-2-9-5l0 0c-1 0-2-1-3-2l0 0c-44-25-67-71-71-133v-149a91 91 0 0 0-91-90h-1a91 91 0 0 0-90 90v149c-4 62-27 108-71 133l0 0c-1 1-2 1-3 2l0 0q-5 2-10 5l0 0q-3 1-6 2l0 1q-4 1-7 2l-1 0c-1 1-2 1-3 1l0 0q-3 1-7 2l-1 1c-2 0-4 1-6 1l-1 0c-1 1-2 1-3 1l-1 0c-1 1-2 1-3 1l-1 0z m449 3z m-826-407c30-18 68-27 110-26 88-1 159 39 175 124a437 437 0 0 1 6 49c1 23 2 63 2 88-1 59-5 121-4 173-65-7-108-37-129-86-13-30-9-51-9-83v-186a41 41 0 0 0-40-40h0a41 41 0 0 0-41 40v151c0 8 0 16 0 25v165q0 7 0 13c-1 0-3 0-4 0v1a151 151 0 0 1-52-14c-51-22-79-66-86-128a319 319 0 0 1-6-75l1 29c0-94 0 48 0-47v-2c0-84-12-142-94-191 58-11 120-11 171 20z m-107 218c0 79-41 166-126 182-69 13-122 4-192 4 10-101 61-132 136-141 22-2 11-2 33-3 170-14 149-139-50-139-18 0-5 1-23 1-74-1-140-15-154-144 32 0 71-1 113-2 41-2 12-3 51-2a568 568 0 0 1 85 8c120 22 127 139 127 236z m-507 188l1-233v-2c0-84-12-142-94-191 115-22 214 15 233 118 18 95 3 230 3 336l1 161c-102-11-148-78-144-189z m-170-215l1 29c0-94-1 48 0-47v-2c0-84-12-142-94-191 115-22 214 15 233 118 15 83 4 221 4 310-102-10-148-107-144-217z m1376 270a67 67 0 0 1 67 67 67 67 0 0 1-67 67 67 67 0 0 1-67-67 67 67 0 0 1 67-67z m-366-648a67 67 0 1 1-67 67 67 67 0 0 1 67-67z m-158 0a67 67 0 1 1-67 67 67 67 0 0 1 67-67z m-158 0a67 67 0 1 1-67 67 67 67 0 0 1 67-67z m-610 648a67 67 0 0 1 67 67 67 67 0 0 1-67 67 67 67 0 0 1-67-67 67 67 0 0 1 67-67z m2498-354l67 71 2 2c50 50 84 99 77 170l3-3 2-2c57-57 58-142 39-217l-12-49c-25-29-45-41-97-93l-113-114c-65 80-50 160 32 235z m-1 420l166-164 1-2c59-59 69-146 46-238 27 18 73 76 91 99 45 57 56 124 13 186-55 80-160 165-235 240l-113 114c-65-79-50-160 31-235z m-2780 0l-67-71-2-2c-50-50-84-98-77-169l-3 2-2 2c-57 58-58 142-39 217l12 50c25 28 45 40 97 92l113 114c65-79 50-160-32-235z m1-420l-165 164-2 2c-59 59-69 146-46 238-27-18-73-76-90-98-46-58-57-125-14-187 55-80 160-165 235-240l113-114c65 80 50 160-31 235z m1354-165v-16c-1 0-1 0-2 0s-2 0-2 0a18 18 0 0 1-13-3 24 24 0 0 1-4-16v-21a37 37 0 0 0-4-20 23 23 0 0 0-14-8 23 23 0 0 0 14-8 36 36 0 0 0 4-20v-21a24 24 0 0 1 4-15 18 18 0 0 1 13-4c0 0 1 0 2 0s1 0 2 0v-16h-6a83 83 0 0 0-14 1 30 30 0 0 0-10 4 16 16 0 0 0-7 8 57 57 0 0 0-2 18v22a27 27 0 0 1-5 18 21 21 0 0 1-16 5c0 0-1 0-1 0s-2 0-2 0v16a19 19 0 0 0 2 0c0 0 1 0 1 0a20 20 0 0 1 16 5 27 27 0 0 1 5 18v22a57 57 0 0 0 2 18 16 16 0 0 0 7 9 28 28 0 0 0 10 3 96 96 0 0 0 16 1z m113-113h12v-18h-33v9a37 37 0 0 0-26-11 41 41 0 0 0-31 13 47 47 0 0 0 0 63 41 41 0 0 0 31 13 36 36 0 0 0 14-3 41 41 0 0 0 12-9v10h33v-18h-12v-49z m-69 24a25 25 0 0 1 7-18 25 25 0 0 1 35 0 25 25 0 0 1 7 18 25 25 0 0 1-7 18 25 25 0 0 1-35 1 26 26 0 0 1-7-19z m129 30l1 1a19 19 0 0 0 6 9 14 14 0 0 0 10 4 14 14 0 0 0 11-4 15 15 0 0 0 4-11 15 15 0 0 0-4-11 15 15 0 0 0-11-4 14 14 0 0 0-9 3 20 20 0 0 0-6 9l-2-1v-49h12v-18h-45v18h12v49h-12v18h33z m57 41h-13v18h34v-85l27 21h-10v18h43v-18h-10l-28-23 29-26h9v-18h-42v18h7l-25 23v-23h10v-18h-44v18h13z m181-95h12v-18h-33v9a37 37 0 0 0-26-11 41 41 0 0 0-31 13 47 47 0 0 0 0 63 41 41 0 0 0 31 13 36 36 0 0 0 14-3 41 41 0 0 0 12-9v10h33v-18h-12v-49z m-69 24a25 25 0 0 1 7-18 25 25 0 0 1 35 0 25 25 0 0 1 7 18 25 25 0 0 1-7 18 25 25 0 0 1-35 1 26 26 0 0 1-7-19z m129 31a54 54 0 0 0 15 10 36 36 0 0 0 15 4 25 25 0 0 0 20-8 33 33 0 0 0 7-22v-39h11v-18h-44v18h12v35a15 15 0 0 1-4 10 13 13 0 0 1-10 4 22 22 0 0 1-11-4 41 41 0 0 1-11-9v-36h12v-18h-44v18h11v49h-11v18h32z m807 58h4a95 95 0 0 0 16-1 28 28 0 0 0 9-3 16 16 0 0 0 7-9 58 58 0 0 0 2-18v-22a27 27 0 0 1 5-18 20 20 0 0 1 16-5c0 0 1 0 2 0s1 0 2 0v-16c-1 0-1 0-2 0s-2 0-2 0a21 21 0 0 1-16-5 27 27 0 0 1-5-18v-22a57 57 0 0 0-2-18 16 16 0 0 0-7-8 28 28 0 0 0-9-4 96 96 0 0 0-16-1h-4v16c0 0 1 0 2 0s1 0 2 0a18 18 0 0 1 13 4 24 24 0 0 1 3 15v21a35 35 0 0 0 4 20 23 23 0 0 0 15 8 23 23 0 0 0-15 8 36 36 0 0 0-4 20v21a24 24 0 0 1-3 16 18 18 0 0 1-13 3c-1 0-1 0-2 0s-2 0-2 0z m-678-89a25 25 0 0 1 7-18 25 25 0 0 1 35 0 25 25 0 0 1 7 18 25 25 0 0 1-7 18 25 25 0 0 1-35 0 25 25 0 0 1-7-18z m-32-80v18h12v87h-12v18h33v-10a41 41 0 0 0 12 9 36 36 0 0 0 14 3 41 41 0 0 0 31-13 48 48 0 0 0 0-63 41 41 0 0 0-31-13 39 39 0 0 0-14 3 45 45 0 0 0-12 7v-28h12v-18z m207 56h12v-18h-33v9a37 37 0 0 0-27-11 41 41 0 0 0-31 13 47 47 0 0 0 1 63 41 41 0 0 0 30 13 36 36 0 0 0 14-3 41 41 0 0 0 13-9v10h33v-18h-12v-49z m-69 24a25 25 0 0 1 7-18 25 25 0 0 1 35 0 25 25 0 0 1 7 18 25 25 0 0 1-7 18 25 25 0 0 1-35 1 26 26 0 0 1-7-19z m129 30l1 1a19 19 0 0 0 6 9 14 14 0 0 0 10 4 14 14 0 0 0 10-4 15 15 0 0 0 5-11 15 15 0 0 0-5-11 15 15 0 0 0-11-4 14 14 0 0 0-8 3 20 20 0 0 0-7 9l-1-1v-49h12v-18h-45v18h12v49h-12v18h33z m99 59h33v-113h12v-18h-33v9a37 37 0 0 0-26-11 41 41 0 0 0-31 13 47 47 0 0 0 0 63 41 41 0 0 0 31 13 36 36 0 0 0 14-3 41 41 0 0 0 12-9v38h-12v18z m-36-89a25 25 0 0 1 7-18 25 25 0 0 1 35 0 27 27 0 0 1 0 36 24 24 0 0 1-35 0 25 25 0 0 1-7-18z m185-24h12v-18h-33v9a37 37 0 0 0-26-11 41 41 0 0 0-31 13 47 47 0 0 0 0 63 41 41 0 0 0 31 13 36 36 0 0 0 14-3 41 41 0 0 0 12-9v10h33v-18h-12v-49z m-69 24a25 25 0 0 1 7-18 25 25 0 0 1 35 0 25 25 0 0 1 7 18 25 25 0 0 1-7 18 25 25 0 0 1-35 1 26 26 0 0 1-7-19z m174-42h-76v18l48 49h-27v-11h-18v29h71v-18l-48-49h32v12h18z m30 21h23l-13-40h-22l12 40z m12 34a16 16 0 0 0-11 4 17 17 0 0 0 0 23 16 16 0 0 0 11 5 16 16 0 0 0 17-16 15 15 0 0 0-5-12 16 16 0 0 0-12-4z" horiz-adv-x="3467" />

<glyph glyph-name="mask-group-24" unicode="&#xe9b3;" d="M24 59l170 201a1535 1535 0 0 0 151 154l2 3h-237l36 187h491l-26-149-163-192a1251 1251 0 0 0-152-155l0-3h262l-35-187h-523z m1002 737l-34-192h132l-32-169h-132l-43-219a437 437 0 0 1-8-68c0-35 16-55 54-55a482 482 0 0 1 53 2l-29-176a442 442 0 0 0-124-15c-122 0-182 62-182 158a605 605 0 0 0 13 119l48 254h-80l31 169h80l26 139z m696-449c0-255-161-442-384-442-176 0-272 119-272 271 0 244 157 442 389 442 180 0 267-129 267-271z m-429-166c0-58 21-103 73-103 86 0 129 170 129 276 0 50-19 93-71 93-88-1-132-174-131-266z m444-67c37-18 102-43 163-42 45 0 65 20 65 46s-18 46-74 77c-72 41-130 99-130 180 0 144 122 243 299 243 79 0 137-14 170-33l-49-160a295 295 0 0 1-123 27c-45 0-75-16-75-48 0-21 22-41 68-64 75-45 142-101 142-187 0-159-127-246-311-246-82 0-159 22-197 49z" horiz-adv-x="2235" />

<glyph glyph-name="mask-group-25" unicode="&#xe9b4;" d="M47 190c47-77 160-79 206-1a170 170 0 0 1 25 81l1 40s-71-65-100-61c-10 1-3 20 1 29 14 34 96 118 96 118s7 119 18 152c6 16 13 24 20 27 6-3 13-11 19-27 12-33 18-152 18-152s83-84 96-118c4-9 11-28 2-29-30-4-101 61-101 61l2-40a170 170 0 0 1 26-86 120 120 0 0 1 202 3 311 311 0 1 1-531 3z m820 196h-64v-119a28 28 0 0 1 7-21 34 34 0 0 1 22-8 310 310 0 0 1 35 0v-66q-76-9-107 14t-31 81v119h-49v71h49v57l74 22v-79h64z m141 22a77 77 0 0 0 34 41 104 104 0 0 0 53 13v-82a87 87 0 0 1-60-13q-27-18-27-59v-136h-73v285h73z m192-124q15-54 81-54 42 0 64 29l59-34q-42-61-125-61-70 0-113 42a146 146 0 0 0-43 108 147 147 0 0 0 43 108 145 145 0 0 0 108 43 136 136 0 0 0 103-44 150 150 0 0 0 41-107 172 172 0 0 0-3-30z m-1 57h146a69 69 0 0 1-26 43 74 74 0 0 1-45 14 77 77 0 0 1-49-15 73 73 0 0 1-26-42z m458 116h81l-109-285h-83l-109 285h81l69-200z m333 0h73v-285h-73v33q-34-41-93-41a129 129 0 0 0-98 43 150 150 0 0 0-41 107 151 151 0 0 0 41 107 129 129 0 0 0 98 43q59 0 93-41z m-136-201a76 76 0 0 1 56-22 77 77 0 0 1 57 22 78 78 0 0 1 23 58 78 78 0 0 1-23 58 82 82 0 0 1-113 0 79 79 0 0 1-22-58 79 79 0 0 1 22-58z m330-92a49 49 0 1 1-49 49 49 49 0 0 1 49-49z" horiz-adv-x="2233" />

<glyph glyph-name="mask-group-26" unicode="&#xe9b5;" d="M206 416a121 121 0 1 0 213-8l-97-169 29-51 112 194a172 172 0 0 1-297 172 170 170 0 0 1-15-140 192 192 0 0 0 24 2z m393-98a170 170 0 0 1-115 82 191 191 0 0 0-11-21l-15-27a121 121 0 1 0-112-181l-98 169h-58l112-194a179 179 0 0 1 13-19l1-1a170 170 0 0 1 135-66h0a172 172 0 0 1 148 258z m-323-153a121 121 0 1 0-101 188h195l30 50h-225a172 172 0 1 1 0-343 170 170 0 0 1 130 59 184 184 0 0 0-14 20z m451-32v442h51v-277l147 141h67l-146-140 150-166h-70l-148 164v-164z m501 69a164 164 0 0 0-56-58 120 120 0 0 0-60-19 92 92 0 0 0-69 33q-31 33-31 100a215 215 0 0 0 21 95 170 170 0 0 0 54 66 141 141 0 0 0 84 25q15 0 44-4c3 0 7 0 13-1h51v-216a284 284 0 0 1 12-90h-53a460 460 0 0 0-10 69z m0 61v131a199 199 0 0 1-50 7 99 99 0 0 1-79-36q-31-37-31-99 0-46 17-69a49 49 0 0 1 39-23q24 0 53 24a227 227 0 0 1 51 65z m113-130v306h51v-67a172 172 0 0 0 53 56 114 114 0 0 0 62 20 89 89 0 0 0 49-15 77 77 0 0 0 31-37q9-24 9-92v-171h-51v178a249 249 0 0 1-4 58 46 46 0 0 1-16 23 39 39 0 0 1-25 9q-26 0-57-26a204 204 0 0 1-51-63v-179z m361 237a166 166 0 0 0 56 58 121 121 0 0 0 60 20 92 92 0 0 0 69-34q31-33 31-100a213 213 0 0 0-21-95 171 171 0 0 0-54-66 141 141 0 0 0-84-24q-14 0-44 3c-3 0-7 1-13 1h-51v442h51z m0-60v-131a206 206 0 0 1 51-8 99 99 0 0 1 78 37q31 36 31 99 0 46-17 69a49 49 0 0 1-39 23q-24 0-52-24a234 234 0 0 1-52-65z m468-108a164 164 0 0 0-56-58 120 120 0 0 0-60-19 92 92 0 0 0-69 33q-30 33-30 101a215 215 0 0 0 20 94 171 171 0 0 0 54 66 141 141 0 0 0 84 25q15 0 44-4c3 0 7 0 13-1h51v-216a284 284 0 0 1 12-90h-53a468 468 0 0 0-10 69z m0 61v131a199 199 0 0 1-50 7 99 99 0 0 1-79-36q-31-37-31-99 0-46 17-69a49 49 0 0 1 39-23q24 0 53 24a229 229 0 0 1 51 65z" horiz-adv-x="2233" />

<glyph glyph-name="mask-group-27" unicode="&#xe9b6;" d="M822 219q-45 48-45 123t45 121a149 149 0 0 0 112 46 135 135 0 0 0 73-19 129 129 0 0 0 48-52v66h55v-328h-55v67a130 130 0 0 0-48-52 133 133 0 0 0-73-20 147 147 0 0 0-112 48z m200 32a122 122 0 0 1 33 89 122 122 0 0 1-33 89 106 106 0 0 1-78 33 107 107 0 0 1-79-32q-32-32-32-88a126 126 0 0 1 33-90 106 106 0 0 1 156-1z m116 253h58l100-277 101 277h59l-129-328h-62z m483-333a151 151 0 0 0-115 46q-44 47-44 123t45 123a155 155 0 0 0 116 46q72 0 115-43a153 153 0 0 0 43-112 208 208 0 0 0-2-33h-261a112 112 0 0 1 31-77 99 99 0 0 1 72-29 102 102 0 0 1 57 15 89 89 0 0 1 33 40h59a151 151 0 0 0-54-71 155 155 0 0 0-95-28z m74 265a107 107 0 0 1-145 1 112 112 0 0 1-32-76h207a103 103 0 0 1-30 75z m184 68v-53q34 58 107 58a124 124 0 0 0 91-36q37-36 37-103v-194h-54v185q0 50-24 76a98 98 0 0 1-132 0q-25-26-25-76v-185h-54v328z m345-318a35 35 0 1 0 0 50 35 35 0 0 0 0-50z m-1870-87h-5c-4 0-8 0-12 0a340 340 0 0 0-333 271c3-195 151-353 333-353s329 157 333 353a339 339 0 0 0-316-271z m-335 375c-5 0-9 0-13 0a328 328 0 0 1-2-37 332 332 0 0 1 333-331c4 0 8 0 12 0a336 336 0 0 1 2 37 332 332 0 0 1-332 331z m649 0a332 332 0 0 1-317-331v0c0-7 0-13 0-19 0 6 0 12 0 19a332 332 0 0 1-332 331c-5 0-9 0-13 0a328 328 0 0 1-2-37 332 332 0 0 1 333-331c4 0 8 0 12 0h4a331 331 0 0 1 315 368z m0 0a332 332 0 0 1-317-331v0c0-7 0-13 0-19 0 6 0 12 0 19a332 332 0 0 1-332 331c-5 0-9 0-13 0a328 328 0 0 1-2-37 332 332 0 0 1 333-331c4 0 8 0 12 0h4a331 331 0 0 1 315 368z m-331-31a120 120 0 1 1-120 120 120 120 0 0 1 120-120z" horiz-adv-x="2234" />

<glyph glyph-name="mask-group-28" unicode="&#xe9b7;" d="M211 88h-40v524l40-34z m-127 0h40v422l-40-33z m-83 0h40v322l-40-33z m380 0h-40v322l40-33z m-83 0h-40v422l40-33z m228 189l-10-68h-43l45 256h60l46-256h-45l-11 68z m38 37c-7 43-13 84-16 113h-1c-2-21-10-76-15-113z m201-30v-15c0-20 6-30 22-30 17 0 21 14 21 31 0 28-6 36-36 58s-45 35-45 73c0 34 11 68 61 68 50 0 58-34 58-62v-13h-42v12c0 18-3 29-17 29s-18-11-18-28c0-18 4-27 28-44 42-28 54-44 54-87 0-36-13-71-65-71-51 0-63 30-63 64v15z m323-75h-33a140 140 0 0 0-2 19c-8-17-24-23-42-23-40 0-53 27-53 71v120c0 42 17 72 65 72 58 0 64-39 64-66v-9h-42v10c0 14-2 30-22 30-15 0-22-10-22-31v-131c0-20 6-31 22-31 18 0 23 14 23 41v37h-24v34h66z m158 68l-9-68h-44l45 256h60l46-256h-44l-11 68z m38 37c-7 43-13 84-16 113h-1c-1-21-10-76-15-113z m205 9v-114h-42v256h59c42 0 67-16 67-62v-10c0-39-18-49-28-53 16-7 25-18 25-52a636 636 0 0 1 2-79h-41c-3 15-3 57-3 76 0 31-4 38-29 38z m0 33h10c23 0 31 8 31 36v8c0 20-4 32-28 32h-12z m198 109h59c58 0 73-28 73-76v-98c0-39-8-82-73-82h-59z m42-223h14c28 0 32 17 32 44v106c0 24-4 39-32 39h-13z m247 223v-256h-43v256z m157-188l-10-68h-43l45 256h60l46-256h-45l-10 68z m38 37c-7 43-13 84-16 113h-2c-1-21-9-76-15-113z" horiz-adv-x="2231" />

<glyph glyph-name="709592" unicode="&#xe9b8;" d="M440 850a440 440 0 1 1 441-440 441 441 0 0 1-441 440z m0-799a359 359 0 1 0 360 359 360 360 0 0 0-360-359z m548-132l-233 234a41 41 0 0 1-58-58l234-233a41 41 0 1 1 57 57z" horiz-adv-x="1000" />

<glyph glyph-name="menu-2" unicode="&#xf0c9;" d="M857 100v-71q0-15-10-25t-26-11h-785q-15 0-25 11t-11 25v71q0 15 11 25t25 11h785q15 0 26-11t10-25z m0 286v-72q0-14-10-25t-26-10h-785q-15 0-25 10t-11 25v72q0 14 11 25t25 10h785q15 0 26-10t10-25z m0 285v-71q0-14-10-25t-26-11h-785q-15 0-25 11t-11 25v71q0 15 11 26t25 10h785q15 0 26-10t10-26z" horiz-adv-x="857.1" />

<glyph glyph-name="ellipsis" unicode="&#xf141;" d="M214 439v-107q0-22-15-38t-38-15h-107q-23 0-38 15t-16 38v107q0 23 16 38t38 16h107q22 0 38-16t15-38z m286 0v-107q0-22-16-38t-38-15h-107q-22 0-38 15t-15 38v107q0 23 15 38t38 16h107q23 0 38-16t16-38z m286 0v-107q0-22-16-38t-38-15h-107q-22 0-38 15t-16 38v107q0 23 16 38t38 16h107q23 0 38-16t16-38z" horiz-adv-x="785.7" />
</font>
</defs>
</svg>
